<svg width="116" height="30" viewBox="0 0 116 30" fill="none" xmlns="http://www.w3.org/2000/svg">
<g clip-path="url(#clip0_176_353)">
<path fill-rule="evenodd" clip-rule="evenodd" d="M37.4241 23.5225L38.8544 20.1989C40.3993 21.3542 42.4576 21.9547 44.4884 21.9547C45.9875 21.9547 46.9364 21.3771 46.9364 20.5015C46.9135 18.0535 37.9558 19.9697 37.8871 13.8314C37.8642 10.7141 40.6331 8.31195 44.5572 8.31195C46.8906 8.31195 49.2194 8.88956 50.8834 10.2052L49.5448 13.5976C48.0229 12.6257 46.1296 11.9335 44.328 11.9335C43.104 11.9335 42.2971 12.5111 42.2971 13.2492C42.3201 15.6513 51.3465 14.3357 51.4381 20.1989C51.4381 23.385 48.738 25.6267 44.8597 25.6267C42.0175 25.6221 39.4091 24.9528 37.4241 23.5225ZM92.348 18.9978C91.6329 20.2448 90.2943 21.0974 88.7448 21.0974C86.4573 21.0974 84.6144 19.25 84.6144 16.967C84.6144 14.6841 86.4619 12.8366 88.7448 12.8366C90.2897 12.8366 91.6329 13.6893 92.348 14.9362L96.2951 12.7449C94.819 10.1136 91.9767 8.31195 88.7448 8.31195C83.9634 8.31195 80.0852 12.1902 80.0852 16.9716C80.0852 21.753 83.9634 25.6313 88.7448 25.6313C91.9996 25.6313 94.819 23.8526 96.2951 21.1983L92.348 18.9978ZM53.4231 1.12842H58.365V25.3012H53.4231V1.12842ZM98.2342 1.12842V25.3012H103.176V18.0489L109.039 25.3012H115.366L107.907 16.6874L114.811 8.65118H108.76L103.171 15.3213V1.12842H98.2342Z" fill="white"/>
<path d="M73.0485 19.0439C72.3334 20.2221 70.8572 21.0977 69.1932 21.0977C66.9056 21.0977 65.0627 19.2502 65.0627 16.9673C65.0627 14.6843 66.9102 12.8369 69.1932 12.8369C70.8572 12.8369 72.3334 13.7583 73.0485 14.9594V19.0439ZM73.0485 8.65602V10.6181C72.2417 9.25656 70.2338 8.30762 68.1296 8.30762C63.7883 8.30762 60.373 12.1401 60.373 16.9444C60.373 21.7487 63.7883 25.6269 68.1296 25.6269C70.2292 25.6269 72.2371 24.6826 73.0485 23.3165V25.2785H77.9903V8.65602H73.0485Z" fill="white"/>
<path fill-rule="evenodd" clip-rule="evenodd" d="M6.87929 19.0207C6.87929 20.7077 5.51776 22.0692 3.83076 22.0692C2.14375 22.0692 0.782227 20.7031 0.782227 19.0207C0.782227 17.3383 2.14375 15.9722 3.83076 15.9722H6.87929V19.0207ZM8.40126 19.0207C8.40126 17.3337 9.76278 15.9722 11.4498 15.9722C13.1368 15.9722 14.4983 17.3337 14.4983 19.0207V26.6397C14.4983 28.3267 13.1368 29.6883 11.4498 29.6883C9.76278 29.6883 8.40126 28.3267 8.40126 26.6397V19.0207Z" fill="#E01E5A"/>
<path fill-rule="evenodd" clip-rule="evenodd" d="M11.4498 6.78554C9.76276 6.78554 8.40123 5.42401 8.40123 3.73701C8.40123 2.05 9.76276 0.688477 11.4498 0.688477C13.1368 0.688477 14.4983 2.05 14.4983 3.73701V6.78554H11.4498ZM11.4498 8.33043C13.1368 8.33043 14.4983 9.69195 14.4983 11.379C14.4983 13.066 13.1368 14.4275 11.4498 14.4275H3.80781C2.1208 14.4275 0.759277 13.0614 0.759277 11.379C0.759277 9.69654 2.1208 8.33043 3.80781 8.33043H11.4498Z" fill="#36C5F0"/>
<path fill-rule="evenodd" clip-rule="evenodd" d="M23.6622 11.379C23.6622 9.69195 25.0238 8.33043 26.7108 8.33043C28.3978 8.33043 29.7593 9.69195 29.7593 11.379C29.7593 13.066 28.3978 14.4275 26.7108 14.4275H23.6622V11.379ZM22.1403 11.379C22.1403 13.066 20.7787 14.4275 19.0917 14.4275C17.4047 14.4275 16.0432 13.066 16.0432 11.379V3.73701C16.0432 2.05 17.4047 0.688477 19.0917 0.688477C20.7787 0.688477 22.1403 2.05 22.1403 3.73701V11.379Z" fill="#2EB67D"/>
<path fill-rule="evenodd" clip-rule="evenodd" d="M19.0917 23.5912C20.7787 23.5912 22.1403 24.9527 22.1403 26.6397C22.1403 28.3267 20.7787 29.6883 19.0917 29.6883C17.4047 29.6883 16.0432 28.3267 16.0432 26.6397V23.5912H19.0917ZM19.0917 22.0692C17.4047 22.0692 16.0432 20.7077 16.0432 19.0207C16.0432 17.3337 17.4047 15.9722 19.0917 15.9722H26.7337C28.4207 15.9722 29.7822 17.3337 29.7822 19.0207C29.7822 20.7077 28.4207 22.0692 26.7337 22.0692H19.0917Z" fill="#ECB22E"/>
</g>
<defs>
<clipPath id="clip0_176_353">
<rect width="114.606" height="29" fill="white" transform="translate(0.759277 0.688477)"/>
</clipPath>
</defs>
</svg>
