<svg width="98" height="30" viewBox="0 0 98 30" fill="none" xmlns="http://www.w3.org/2000/svg">
<g clip-path="url(#clip0_176_370)">
<path d="M27.0957 19.005C25.5185 19.005 24.0407 18.3373 22.698 17.2503L23.0249 15.7157L23.0391 15.6589C23.3303 14.025 24.2539 11.2825 27.0957 11.2825C29.2269 11.2825 30.9605 13.0161 30.9605 15.1473C30.9533 17.2715 29.2199 19.005 27.0957 19.005ZM27.0957 7.36808C23.4652 7.36808 20.652 9.72674 19.5083 13.6057C17.7606 10.9842 16.4391 7.837 15.6648 5.18701H11.7574V15.3533C11.7574 17.3568 10.1233 18.9906 8.11987 18.9906C6.11641 18.9906 4.48255 17.3568 4.48255 15.3533V5.18701H0.574752V15.3533C0.560536 19.5166 3.94937 22.9337 8.11248 22.9337C12.2758 22.9337 15.6646 19.5166 15.6646 15.3533V13.6484C16.4247 15.2326 17.3553 16.831 18.485 18.252L16.0907 29.5051H20.0906L21.824 21.3423C23.3443 22.3156 25.0921 22.9267 27.0955 22.9267C31.3794 22.9267 34.8677 19.4171 34.8677 15.1331C34.8677 10.8562 31.3796 7.36808 27.0957 7.36808Z" fill="#6FDA44"/>
<path d="M46.7961 7.80848L49.3181 17.9748L52.0961 7.80848H55.4066L51.137 22.5003H47.8262L45.2049 12.2699L42.5903 22.4931H39.2798L35.0098 7.80147H38.3205L41.0982 17.9678L43.6203 7.80147H46.7959V7.80867L46.7961 7.80848ZM63.328 7.36798C59.0299 7.36798 55.5488 10.8561 55.5488 15.1472C55.5488 19.4454 59.0369 22.9266 63.328 22.9266C67.6262 22.9266 71.1144 19.4454 71.1144 15.1472C71.1144 10.8491 67.6262 7.36798 63.328 7.36798ZM63.328 19.7296C60.7989 19.7296 58.7528 17.6835 58.7528 15.1544C58.7528 12.6251 60.8059 10.5792 63.328 10.5792C65.8572 10.5792 67.9032 12.6251 67.9032 15.1544C67.9032 17.6764 65.8572 19.7296 63.328 19.7296ZM80.5703 11.0978C78.3468 11.0978 76.5493 12.9022 76.5493 15.1188V22.4931H73.2172V7.80848H76.5493V10.0676C76.5493 10.0676 77.9701 7.80128 80.89 7.80128H81.913V11.0978H80.5703ZM91.7527 14.5789C94.1182 13.2432 95.724 10.707 95.724 7.80128H92.3919C92.3919 10.2522 90.4028 12.2415 87.9518 12.2415H87.5041V0.718262H84.1723V22.4929H87.5041V15.5735H87.9022C88.2289 15.5735 88.6552 15.7867 88.847 16.0494L93.5784 22.4931H97.5711L91.7527 14.5789Z" fill="white"/>
</g>
<defs>
<clipPath id="clip0_176_370">
<rect width="97.0549" height="29" fill="white" transform="translate(0.535156 0.689941)"/>
</clipPath>
</defs>
</svg>
