<svg width="138" height="30" viewBox="0 0 138 30" fill="none" xmlns="http://www.w3.org/2000/svg">
<path d="M50.8056 21.02C47.6543 21.02 45.1 18.4092 45.1 15.1881C45.1 11.9674 47.6543 9.35625 50.806 9.35625C53.9572 9.35625 56.5112 11.9674 56.5112 15.1881C56.5112 18.4092 53.9568 21.02 50.8056 21.02ZM56.5295 21.7596C56.5295 22.2938 57.4447 23.794 58.5661 23.794H59.2923C59.5739 23.794 59.804 23.5635 59.804 23.2822V7.32227H59.8014C59.7943 7.19184 59.7377 7.06905 59.643 6.97904C59.5484 6.88904 59.4229 6.83863 59.2923 6.83815H57.042C56.7697 6.83815 56.5474 7.05369 56.5321 7.32227H56.5295V8.61924C55.1511 6.92108 52.977 6.21619 50.797 6.21619C45.8418 6.21619 41.8254 10.233 41.8254 15.1885C41.8254 20.144 45.8418 24.1608 50.797 24.1608C52.977 24.1608 55.3528 23.3151 56.5295 21.7577V21.7604V21.7596ZM65.1809 19.4742C66.6829 20.5146 68.3228 21.02 69.8985 21.02C71.4001 21.02 72.9515 20.2415 72.9515 18.887C72.9515 17.079 69.5697 16.7974 67.4454 16.0753C65.3199 15.3532 63.4895 13.8601 63.4895 11.4425C63.4895 7.74364 66.7857 6.21582 69.8622 6.21582C71.8114 6.21582 73.8222 6.85832 75.1263 7.7795C75.5757 8.11943 75.3019 8.51054 75.3019 8.51054L74.0572 10.2879C73.9175 10.4881 73.6276 10.648 73.3217 10.4444C72.483 9.89006 71.5492 9.35588 69.8618 9.35588C67.7733 9.35588 66.8548 10.2229 66.8548 11.2972C66.8548 12.586 68.3239 12.9909 70.0449 13.4302C73.0445 14.2382 76.3168 15.2105 76.3168 18.8874C76.3168 22.1466 73.2679 24.1608 69.8985 24.1608C67.3452 24.1608 65.1712 23.4327 63.3479 22.0951C62.9684 21.7148 63.2336 21.3618 63.2336 21.3618L64.4719 19.5934C64.724 19.2624 65.0416 19.3782 65.1809 19.4742ZM93.1934 21.76C93.1934 22.2938 94.1082 23.794 95.2292 23.794H95.9558C96.2375 23.794 96.4679 23.5635 96.4679 23.2822V7.32227H96.4649C96.4577 7.19191 96.401 7.06921 96.3064 6.97924C96.2118 6.88927 96.0864 6.83881 95.9558 6.83815H93.7055C93.4328 6.83815 93.211 7.05369 93.196 7.32227H93.1934V8.61924C91.8146 6.92108 89.6406 6.21619 87.4609 6.21619C82.5058 6.21619 78.4886 10.233 78.4886 15.1881C78.4886 20.1433 82.5058 24.1604 87.4609 24.1604C89.6406 24.1604 92.0163 23.3147 93.193 21.7574V21.76H93.1934ZM87.4695 21.0203C84.3179 21.0203 81.7635 18.4092 81.7635 15.1881C81.7635 11.9674 84.3179 9.35625 87.4695 9.35625C90.6204 9.35625 93.1751 11.9674 93.1751 15.1881C93.1751 18.4092 90.6204 21.02 87.4695 21.02V21.0203ZM116.63 22.3083L116.629 14.0503C116.629 9.39511 113.692 6.25429 109.009 6.25429C106.773 6.25429 104.945 7.54715 104.297 8.65772V8.64203L104.293 8.65473C104.292 7.53109 103.38 6.87663 102.257 6.87663H101.534C101.252 6.87663 101.022 7.10748 101.022 7.38914V23.3494H101.025C101.04 23.6184 101.262 23.8339 101.534 23.8339H103.785C103.819 23.8339 103.853 23.8298 103.886 23.8238C103.9 23.8205 103.914 23.8145 103.929 23.8104C103.946 23.8055 103.963 23.8014 103.979 23.7947C103.999 23.7865 104.017 23.7753 104.036 23.7648C104.045 23.7592 104.055 23.7555 104.064 23.7499C104.086 23.7347 104.107 23.718 104.126 23.6998C104.13 23.6965 104.134 23.6942 104.137 23.6912C104.231 23.6016 104.287 23.4793 104.294 23.3494H104.297V13.9222C104.297 11.422 106.324 9.39473 108.825 9.39473C111.325 9.39473 113.352 11.422 113.352 13.9222L113.354 21.8026L113.354 21.7996C113.354 21.8067 113.356 21.8141 113.356 21.8212V23.3494H113.359C113.374 23.6184 113.596 23.8339 113.868 23.8339H116.118C116.153 23.8339 116.186 23.8298 116.219 23.8238C116.232 23.8208 116.245 23.8152 116.257 23.8123C116.276 23.8067 116.295 23.8018 116.313 23.7947C116.331 23.7872 116.348 23.7764 116.365 23.7667C116.376 23.7611 116.387 23.7566 116.397 23.7499C116.418 23.7357 116.437 23.7196 116.456 23.7032C116.461 23.6994 116.466 23.6957 116.471 23.6909C116.492 23.6707 116.51 23.6483 116.528 23.6251C116.587 23.5454 116.622 23.4501 116.627 23.3509L116.628 23.3494H116.63L116.63 22.3083ZM134.18 21.76C134.18 22.2938 135.094 23.794 136.216 23.794H136.942C137.223 23.794 137.454 23.5635 137.454 23.2822V7.32227H137.452C137.444 7.19187 137.387 7.06918 137.293 6.97922C137.198 6.88926 137.073 6.83881 136.942 6.83815H134.692C134.561 6.83854 134.436 6.8889 134.341 6.97891C134.246 7.06893 134.19 7.19178 134.183 7.32227H134.18V8.61924C132.8 6.92108 130.627 6.21619 128.446 6.21619C123.492 6.21619 119.475 10.233 119.475 15.1881C119.475 20.1433 123.492 24.1604 128.446 24.1604C130.627 24.1604 133.002 23.3147 134.179 21.7574L134.18 21.76ZM128.456 21.0203C125.304 21.0203 122.75 18.4092 122.75 15.1881C122.75 11.9674 125.304 9.35625 128.456 9.35625C131.606 9.35625 134.161 11.9674 134.161 15.1881C134.161 18.4092 131.606 21.02 128.456 21.02V21.0203Z" fill="white"/>
<path d="M25.2224 16.0412C21.4534 16.0412 18.3986 19.096 18.3986 22.8644C18.3986 26.633 21.4534 29.6885 25.2224 29.6885C28.9908 29.6885 32.0456 26.633 32.0456 22.8644C32.0456 19.096 28.9908 16.0412 25.2224 16.0412ZM7.49435 16.0416C3.72602 16.0419 0.670898 19.096 0.670898 22.8647C0.670898 26.633 3.72602 29.6882 7.49435 29.6882C11.263 29.6882 14.3181 26.633 14.3181 22.8647C14.3181 19.096 11.2633 16.0416 7.49435 16.0416ZM23.1817 7.51193C23.1817 11.2803 20.1269 14.336 16.3586 14.336C12.5896 14.336 9.53477 11.2803 9.53477 7.51193C9.53477 3.7436 12.5896 0.688477 16.3586 0.688477C20.1269 0.688477 23.1814 3.7436 23.1814 7.51193H23.1817Z" fill="url(#paint0_radial_176_362)"/>
<defs>
<radialGradient id="paint0_radial_176_362" cx="0" cy="0" r="1" gradientUnits="userSpaceOnUse" gradientTransform="translate(16.3583 1585.6) scale(2078.98 1921.63)">
<stop stop-color="#FFB900"/>
<stop offset="0.6" stop-color="#F95D8F"/>
<stop offset="0.9991" stop-color="#F95353"/>
</radialGradient>
</defs>
</svg>
