<svg width="102" height="30" viewBox="0 0 102 30" fill="none" xmlns="http://www.w3.org/2000/svg">
<g clip-path="url(#clip0_176_347)">
<path fill-rule="evenodd" clip-rule="evenodd" d="M18.2482 4.83643H2.71655C2.07487 4.83643 1.45941 5.09111 1.00537 5.54455C0.551322 5.99798 0.295806 6.61309 0.294942 7.25477V22.7635C0.293653 23.0824 0.355338 23.3983 0.476458 23.6933C0.597578 23.9882 0.775749 24.2563 1.00074 24.4822C1.22574 24.7081 1.49313 24.8874 1.78758 25.0097C2.08202 25.132 2.39772 25.1949 2.71655 25.1949H18.2482C18.5667 25.1945 18.8821 25.1312 19.1761 25.0087C19.4702 24.8862 19.7372 24.7069 19.9619 24.4811C20.1865 24.2552 20.3644 23.9872 20.4853 23.6925C20.6062 23.3978 20.6678 23.0821 20.6665 22.7635V7.25477C20.6656 6.61365 20.4106 5.99904 19.9572 5.5457C19.5039 5.09236 18.8893 4.83729 18.2482 4.83643ZM9.08063 19.4999C9.0802 19.6065 9.05874 19.7119 9.01746 19.8102C8.97619 19.9084 8.91592 19.9975 8.84011 20.0724C8.7643 20.1473 8.67445 20.2065 8.57571 20.2466C8.47697 20.2867 8.37129 20.3069 8.26472 20.306H4.87055C4.65732 20.3052 4.45312 20.2199 4.30265 20.0688C4.15218 19.9177 4.06769 19.7131 4.0677 19.4999V9.39898C4.06769 9.18575 4.15218 8.9812 4.30265 8.83012C4.45312 8.67904 4.65732 8.59373 4.87055 8.59286H8.26472C8.47825 8.59372 8.68279 8.67893 8.83378 8.82992C8.98477 8.98091 9.06998 9.18545 9.07084 9.39898L9.08063 19.4999ZM16.9133 14.8623C16.9133 14.969 16.8922 15.0746 16.8511 15.1731C16.8099 15.2715 16.7497 15.3608 16.6738 15.4358C16.5979 15.5108 16.5079 15.5699 16.4089 15.6099C16.31 15.6498 16.2041 15.6697 16.0974 15.6684H12.7033C12.4897 15.6675 12.2852 15.5823 12.1342 15.4314C11.9832 15.2804 11.898 15.0758 11.8971 14.8623V9.39898C11.898 9.18545 11.9832 8.98091 12.1342 8.82992C12.2852 8.67893 12.4897 8.59372 12.7033 8.59286H16.0974C16.3107 8.59373 16.5149 8.67904 16.6653 8.83012C16.8158 8.9812 16.9003 9.18575 16.9003 9.39898L16.9133 14.8623Z" fill="url(#paint0_linear_176_347)"/>
<path d="M42.5066 6.3279V10.2638H37.8429V25.1949H33.3456V10.2638H28.6819V6.3279H42.5066ZM48.231 25.1949H44.0732V10.5086H48.231V13.3219C49.0208 11.3408 50.2838 10.1627 52.5325 10.3063V14.6567C49.5952 14.4282 48.231 15.1462 48.231 17.4993V25.1949ZM75.2473 25.3092C72.5222 25.3092 70.8088 24.0037 70.8088 20.9163V4.83643H74.996V20.3419C74.996 21.2329 75.5835 21.5495 76.3015 21.5495C76.5086 21.5537 76.7158 21.5439 76.9216 21.5201V25.1395C76.374 25.2729 75.8106 25.33 75.2473 25.3092ZM83.9808 25.3092C81.2557 25.3092 79.539 24.0037 79.539 20.9163V4.83643H83.7262V20.3419C83.7262 21.2329 84.317 21.5495 85.048 21.5495C85.254 21.5537 85.4601 21.5439 85.6648 21.5201V25.1395C85.1141 25.2741 84.5473 25.3313 83.9808 25.3092ZM87.672 17.8452C87.672 13.3088 90.2829 10.2051 94.7802 10.2051C99.2774 10.2051 101.833 13.299 101.833 17.8452C101.833 22.3915 99.2481 25.5409 94.7802 25.5409C90.3122 25.5409 87.672 22.3523 87.672 17.8452ZM91.7482 17.8452C91.7482 20.0547 92.6751 21.8073 94.7802 21.8073C96.8852 21.8073 97.7598 20.0547 97.7598 17.8452C97.7598 15.6358 96.8624 13.9289 94.7802 13.9289C92.698 13.9289 91.7482 15.6325 91.7482 17.8452ZM58.1459 19.1735C59.3101 19.3015 60.4801 19.37 61.6511 19.3792C64.8364 19.3792 67.5256 18.5241 67.5256 15.44C67.5256 12.4472 64.7613 10.1986 61.4357 10.1986C56.958 10.1986 54.0892 13.4459 54.0892 17.9823C54.0892 22.6917 56.5631 25.4887 62.1537 25.4887C63.8122 25.5022 65.4588 25.2078 67.0099 24.6205V21.1024C65.5739 21.5625 63.9584 22.0194 62.3005 22.0194C60.0747 22.0194 58.5245 21.2884 58.1459 19.1735ZM61.3508 13.4035C62.529 13.4035 63.4754 14.203 63.4754 15.2964C63.4754 16.703 61.9905 17.1436 60.2803 17.1436C59.5525 17.1402 58.826 17.0824 58.1068 16.9706C58.1611 16.2848 58.3578 15.6179 58.6844 15.0124C58.9465 14.5325 59.3316 14.1311 59.8002 13.8495C60.2689 13.5679 60.8041 13.4162 61.3508 13.41V13.4035Z" fill="white"/>
</g>
<defs>
<linearGradient id="paint0_linear_176_347" x1="3172.43" y1="1296.38" x2="3172.43" y2="4.83643" gradientUnits="userSpaceOnUse">
<stop stop-color="#0052CC"/>
<stop offset="1" stop-color="#2684FF"/>
</linearGradient>
<clipPath id="clip0_176_347">
<rect width="101.541" height="29" fill="white" transform="translate(0.292236 0.688477)"/>
</clipPath>
</defs>
</svg>
