<svg width="157" height="29" viewBox="0 0 157 29" fill="none" xmlns="http://www.w3.org/2000/svg">
<g clip-path="url(#clip0_1282_121)">
<path d="M13.447 0C14.7791 0 16.0087 0.103495 17.1359 0.409879C18.2631 0.614819 19.1853 1.0247 20.0051 1.53705C20.8248 2.0494 21.4396 2.76669 21.8495 3.68994C22.2594 4.61114 22.4643 5.73934 22.4643 6.96898C22.4643 8.40253 22.1569 9.63319 21.4396 10.5554C20.8248 11.4766 19.8001 12.2964 18.5705 12.9112C20.3125 13.4236 21.6446 14.3448 22.4643 15.5754C23.2841 16.8051 23.7964 18.3421 23.7964 20.0841C23.7964 21.5176 23.489 22.7483 22.9767 23.773C22.4643 24.7977 21.6446 25.7199 20.7224 26.3348C19.8001 26.9506 18.673 27.463 17.4433 27.7693C16.2137 28.0757 14.984 28.2817 13.7544 28.2817H0.0234375V0H13.447ZM12.6272 11.4766C13.7544 11.4766 14.6766 11.1692 15.3939 10.6569C16.1112 10.1445 16.4186 9.22229 16.4186 8.09512C16.4186 7.4803 16.3161 6.86548 16.1112 6.4556C15.9063 6.04572 15.5989 5.73831 15.189 5.4309C14.7791 5.22596 14.3692 5.02102 13.8569 4.91855C13.3445 4.81608 12.8322 4.81608 12.2174 4.81608H6.2741V11.4766H12.6272ZM12.9346 23.5681C13.5495 23.5681 14.1643 23.4656 14.6766 23.3642C15.189 23.2607 15.7013 23.0557 16.1112 22.7483C16.5211 22.4409 16.8285 22.1335 17.1359 21.6211C17.3408 21.1088 17.5458 20.4929 17.5458 19.7767C17.5458 18.3421 17.1359 17.3174 16.3161 16.5991C15.4964 15.9843 14.3692 15.6779 13.0371 15.6779H6.2741V23.5681H12.9346ZM32.7113 23.4656C33.5311 24.2854 34.7607 24.6952 36.4002 24.6952C37.5274 24.6952 38.5521 24.3878 39.3719 23.8755C40.1916 23.2596 40.704 22.6458 40.9089 22.03H45.9299C45.1102 24.4893 43.8805 26.2323 42.241 27.3584C40.6015 28.3831 38.6546 28.999 36.2978 28.999C34.6583 28.999 33.2237 28.6905 31.8916 28.1782C30.5595 27.6658 29.5348 26.9496 28.6125 25.9249C27.6903 25.0026 26.973 23.8755 26.5631 22.5423C26.0508 21.2102 25.8458 19.7767 25.8458 18.1361C25.8458 16.5991 26.0508 15.1655 26.5631 13.8324C27.0755 12.5003 27.7928 11.3742 28.715 10.3495C29.6372 9.42723 30.7644 8.60747 31.994 8.09512C33.3261 7.58277 34.6583 7.27536 36.2978 7.27536C38.0398 7.27536 39.5768 7.58277 40.9089 8.30006C42.241 9.01735 43.2657 9.83711 44.0855 11.0667C44.9052 12.1939 45.5201 13.525 45.9299 14.9606C46.1349 16.3952 46.2374 17.8298 46.1349 19.4693H31.2767C31.2767 21.1088 31.8916 22.6458 32.7113 23.4656ZM39.1669 12.7063C38.4496 11.989 37.3225 11.5791 35.9904 11.5791C35.0681 11.5791 34.3508 11.783 33.736 12.0914C33.1212 12.3989 32.7113 12.8077 32.3014 13.2186C31.8916 13.6295 31.6866 14.1408 31.5842 14.6532C31.4817 15.1655 31.3792 15.5744 31.3792 15.9853H40.6015C40.3966 14.4483 39.8842 13.4236 39.1669 12.7063ZM54.1275 0V10.6569H54.23C54.9473 9.42723 55.8695 8.60747 56.9967 8.09512C58.1239 7.58277 59.1486 7.27536 60.2757 7.27536C61.8128 7.27536 63.0424 7.4803 63.9646 7.89018C64.8869 8.30006 65.7066 8.91488 66.219 9.63217C66.7313 10.3495 67.1412 11.2717 67.3461 12.2964C67.5511 13.3211 67.6536 14.4493 67.6536 15.7804V28.3842H62.0177V16.8051C62.0177 15.0631 61.7103 13.8334 61.198 13.0137C60.6856 12.1939 59.7634 11.784 58.4313 11.784C56.8942 11.784 55.767 12.2964 55.1522 13.1172C54.4349 14.0384 54.1275 15.5754 54.1275 17.6248V28.3842H48.4917V0H54.1275ZM71.7523 10.8618C72.3672 9.93958 73.0845 9.32476 74.0067 8.70891C74.9289 8.19656 75.9536 7.78771 77.0808 7.58175C78.2079 7.37681 79.3341 7.27434 80.4623 7.27434C81.487 7.27434 82.5117 7.37681 83.6399 7.47928C84.6646 7.58175 85.6893 7.88813 86.508 8.29904C87.4302 8.70789 88.0451 9.32373 88.6609 10.041C89.1722 10.7593 89.4796 11.784 89.4796 13.0137V23.773C89.4796 24.6952 89.5821 25.6175 89.6846 26.4383C89.7881 27.258 90.0934 27.9753 90.4019 28.3842H84.6636C84.4576 28.1792 84.3551 27.7693 84.2537 27.463C84.1512 27.1545 84.1512 26.7457 84.1512 26.4383C83.229 27.3595 82.2043 27.9753 80.9746 28.3842C79.745 28.794 78.5154 28.8965 77.2857 28.8965C76.261 28.8965 75.4413 28.794 74.519 28.4877C73.6993 28.2827 72.982 27.8718 72.2647 27.3595C71.6499 26.8471 71.1375 26.2323 70.7277 25.4136C70.4202 24.5928 70.2153 23.773 70.2153 22.6458C70.2153 21.5176 70.4202 20.4929 70.8301 19.7767C71.24 19.0594 71.7523 18.4446 72.3672 17.9322C72.982 17.5234 73.8017 17.1125 74.6215 16.9075C75.4413 16.7036 76.261 16.4987 77.1833 16.3952L79.6425 16.0878C80.4623 15.9853 81.1796 15.8828 81.7944 15.7804C82.4092 15.5754 82.9216 15.3705 83.3314 15.0631C83.7413 14.7557 83.8438 14.3458 83.8438 13.731C83.8438 13.1161 83.7413 12.6038 83.5364 12.2964C83.3314 11.989 83.024 11.6816 82.7166 11.4766C82.4082 11.2717 81.9993 11.1692 81.5895 11.0678C81.1796 10.9643 80.6672 10.9643 80.1549 10.9643C79.0277 10.9643 78.2079 11.1692 77.5931 11.6816C76.9783 12.1939 76.5684 13.0137 76.466 14.0384H70.8301C70.8301 12.8087 71.24 11.6816 71.7523 10.8618ZM82.9205 18.8545C82.6142 18.9569 82.2043 19.0594 81.7934 19.1619C81.3835 19.2654 80.9736 19.2654 80.4613 19.3668C80.0524 19.4693 79.5401 19.4693 79.1292 19.5717L77.8995 19.8792C77.4896 19.9816 77.0798 20.1866 76.8748 20.3915C76.5674 20.5964 76.3625 20.9039 76.1575 21.2113C75.8511 21.6211 75.8511 22.031 75.8511 22.5434C75.8511 23.0557 75.9536 23.4656 76.1586 23.773C76.3635 24.0804 76.5684 24.3889 76.8758 24.5928C77.1833 24.7977 77.5931 24.9012 78.003 25.0026C78.4129 25.1041 78.8217 25.1051 79.3341 25.1051C80.4623 25.1051 81.281 24.9012 81.8958 24.5928C82.5117 24.1839 82.9205 23.773 83.229 23.2607C83.5364 22.7483 83.7413 22.236 83.7413 21.7236C83.8438 21.2113 83.8438 20.8024 83.8438 20.494V18.3421C83.5364 18.547 83.229 18.753 82.9205 18.8545ZM97.9857 7.78771V10.6569H98.0881C98.8044 9.42723 99.7277 8.60747 100.854 8.09512C101.982 7.58277 103.212 7.27536 104.338 7.27536C105.875 7.27536 107.104 7.4803 108.027 7.89018C109.051 8.30006 109.77 8.91488 110.282 9.63217C110.794 10.3495 111.203 11.2717 111.511 12.2964C111.716 13.3211 111.819 14.4493 111.819 15.7804V28.3842H106.183V16.8051C106.183 15.0631 105.875 13.8334 105.362 13.0137C104.85 12.1939 103.928 11.6816 102.493 11.6816C100.956 11.6816 99.8281 12.2964 99.1118 13.2186C98.3945 14.1408 98.0871 15.6779 98.0871 17.7273V28.4866H92.4513V7.78771H97.9857ZM124.421 11.4766C123.5 11.4766 122.781 11.6816 122.168 12.0925C121.553 12.5013 121.04 13.0137 120.63 13.732C120.221 14.3468 120.016 15.0641 119.81 15.8839C119.606 16.7046 119.606 17.4209 119.606 18.2417C119.606 18.958 119.708 19.7787 119.81 20.495C120.016 21.3158 120.22 21.9296 120.63 22.5444C121.04 23.1602 121.45 23.6726 122.065 24.0814C122.68 24.4913 123.396 24.6973 124.318 24.6973C125.652 24.6973 126.676 24.2874 127.495 23.5691C128.213 22.8528 128.726 21.8281 128.828 20.495H134.259C133.85 23.2617 132.825 25.3111 131.081 26.7467C129.34 28.1802 127.086 28.8986 124.318 28.8986C122.781 28.8986 121.347 28.5911 120.117 28.0788C118.784 27.5664 117.759 26.8492 116.838 25.9269C115.917 25.0047 115.198 23.8775 114.685 22.6479C114.173 21.3158 113.969 19.9826 113.969 18.4456C113.969 16.8061 114.173 15.3715 114.685 14.0394C115.198 12.7073 115.813 11.4777 116.735 10.453C117.657 9.42825 118.784 8.71096 120.015 8.09614C121.346 7.5838 122.78 7.27639 124.42 7.27639C125.65 7.27639 126.778 7.48133 127.904 7.78873C129.03 8.09614 130.056 8.60849 130.875 9.22229C131.798 9.83813 132.515 10.6569 133.027 11.6816C133.54 12.6038 133.848 13.8334 133.95 15.1655H128.416C128.214 12.7063 126.881 11.4766 124.421 11.4766ZM30.1496 1.94693H41.6262V4.71361H30.1496V1.94693ZM142.764 23.4656C143.585 24.2854 144.916 24.6952 146.453 24.6952C147.581 24.6952 148.606 24.3878 149.425 23.8755C150.245 23.2596 150.758 22.6458 150.962 22.03H155.881C155.06 24.4893 153.832 26.2323 152.191 27.3584C150.551 28.3831 148.605 28.999 146.248 28.999C144.608 28.999 143.174 28.6905 141.841 28.1782C140.579 27.7079 139.454 26.934 138.563 25.9249C137.64 25.0026 136.923 23.8755 136.513 22.5423C136.001 21.2102 135.796 19.7767 135.796 18.1361C135.796 16.5991 136.001 15.1655 136.513 13.8324C137.007 12.5473 137.737 11.3659 138.665 10.3495C139.587 9.42723 140.715 8.60747 141.944 8.09512C143.276 7.58277 144.711 7.27536 146.248 7.27536C147.989 7.27536 149.526 7.58277 150.757 8.30006C152.088 9.01735 153.112 9.83711 153.933 11.0667C154.753 12.1939 155.368 13.525 155.778 14.9606C156.186 16.3942 156.29 17.9312 156.187 19.5717H141.328C141.328 21.1088 141.944 22.6458 142.764 23.4656ZM149.322 12.7063C148.605 11.989 147.477 11.5791 146.145 11.5791C145.223 11.5791 144.505 11.783 143.89 12.0914C143.275 12.3989 142.763 12.8077 142.457 13.2186C142.15 13.6295 141.841 14.1408 141.739 14.6532C141.638 15.1655 141.535 15.5744 141.535 15.9853H150.758C150.449 14.4483 149.937 13.4236 149.322 12.7063Z" fill="white"/>
</g>
<defs>
<clipPath id="clip0_1282_121">
<rect width="156.25" height="29" fill="white"/>
</clipPath>
</defs>
</svg>
