<svg width="97" height="30" viewBox="0 0 97 30" fill="none" xmlns="http://www.w3.org/2000/svg">
<g clip-path="url(#clip0_176_378)">
<path d="M88.1617 14.5876H84.7596C82.5695 14.5876 81.3962 16.2277 81.3962 18.9609V28.841H74.9438V14.5866H72.2057C70.0157 14.5866 68.8433 16.2267 68.8433 18.9599V28.84H62.39V9.31555H68.8433V12.2836C69.8997 9.97952 71.3466 9.31555 73.498 9.31555H81.3972V12.2836C82.4536 9.97952 83.9004 9.31555 86.0518 9.31555H88.1627L88.1617 14.5876ZM60.9818 20.6009H47.5291C47.8809 22.7881 49.2495 24.0377 51.5565 24.0377C53.2769 24.0377 54.4898 23.3341 54.8813 22.0854L60.5904 23.6859C59.1832 27.083 55.7018 29.1532 51.5565 29.1532C44.5562 29.1532 41.3493 23.7245 41.3493 19.0788C41.3493 14.5103 44.1647 9.04303 51.1651 9.04303C58.5955 9.04303 61.0591 14.5876 61.0591 18.6883C61.064 19.3267 61.0382 19.965 60.9818 20.6009ZM54.7247 16.8134C54.5681 15.1337 53.3551 13.5728 51.1661 13.5728C49.1316 13.5728 47.9206 14.4697 47.5291 16.8134H54.7247ZM30.0877 28.84H35.7572L42.8358 9.31754H36.3448L32.9031 20.6792L29.3831 9.31655H22.9298L30.0877 28.84ZM3.65109 28.84H10.0648V14.5876H16.1673V28.841H22.5413V9.31655H10.0648V8.10655C10.0648 6.77862 11.0032 5.95907 12.4897 5.95907H16.1663V0.687012H11.4343C6.77964 0.687012 3.65109 3.53809 3.65109 7.71511V9.31655H0.0141602V14.5886H3.65109V28.84Z" fill="white"/>
<path d="M92.1513 29.4255C94.3543 29.4255 96.1401 27.6418 96.1401 25.4418C96.1401 23.2418 94.3543 21.459 92.1513 21.459C89.9484 21.459 88.1616 23.2428 88.1616 25.4428C88.1616 27.6428 89.9484 29.4255 92.1513 29.4255Z" fill="#BFF747"/>
</g>
<defs>
<clipPath id="clip0_176_378">
<rect width="96.1538" height="29" fill="white" transform="translate(0 0.687012)"/>
</clipPath>
</defs>
</svg>
