<svg width="24" height="25" viewBox="0 0 24 25" fill="none" xmlns="http://www.w3.org/2000/svg">
<path d="M22.8665 15.2707L15.7256 12.4764L22.9286 9.68214C23.3012 9.55795 23.5496 9.12328 23.4875 8.75071C23.3633 7.94348 22.9907 7.19834 22.556 6.5153C22.1835 5.77016 21.6867 5.14921 21.0658 4.59035C20.7553 4.34197 20.3206 4.34197 20.0102 4.59035L13.9869 9.43376L15.2288 1.79608C15.353 1.36141 15.1047 0.988845 14.7321 0.864655C13.9869 0.55418 13.1176 0.429991 12.3104 0.492086C11.5031 0.429991 10.6338 0.55418 9.88868 0.864655C9.51611 0.988845 9.26773 1.42351 9.39192 1.79608L10.6338 9.43376L4.61061 4.59035C4.30014 4.27988 3.86547 4.27988 3.555 4.59035C2.93405 5.08711 2.43729 5.77016 2.06472 6.5153C1.56796 7.19834 1.25748 7.94348 1.0712 8.75071C1.0091 9.18538 1.25748 9.55795 1.63005 9.68214L8.70888 12.4764L1.50586 15.2707C1.13329 15.3949 0.884915 15.8295 0.947009 16.2021C1.0712 17.0093 1.38167 17.7545 1.87843 18.4375C2.251 19.1827 2.74776 19.8036 3.36871 20.3625C3.67919 20.6108 4.11385 20.6108 4.42433 20.3625L10.4475 15.5191L9.20563 23.1567C9.08144 23.5914 9.32983 23.964 9.7024 24.1503C10.5096 24.3986 11.3169 24.5228 12.1241 24.4607C12.9313 24.5228 13.8007 24.3986 14.5458 24.1503C14.9184 24.0261 15.1668 23.5914 15.0426 23.1567L13.8007 15.5191L19.8239 20.3625C20.1343 20.6108 20.569 20.6108 20.9416 20.3625C21.5625 19.8657 22.0593 19.2448 22.4319 18.4996C22.9286 17.8166 23.2391 17.0714 23.4254 16.2642C23.4875 15.7674 23.3012 15.3949 22.8665 15.2707Z" fill="black"/>
</svg>
