<svg width="123" height="30" viewBox="0 0 123 30" fill="none" xmlns="http://www.w3.org/2000/svg">
<path d="M36.127 19.5581H44.8953V16.9031H39.2434V6.90259H36.127V19.5581Z" fill="white"/>
<path d="M50.0904 17.7892C48.8403 17.7892 48.1889 16.6918 48.1889 15.0457C48.1889 13.3996 48.8403 12.2845 50.0904 12.2845C51.3405 12.2845 52.0096 13.3996 52.0096 15.0457C52.0096 16.6918 51.3405 17.7892 50.0904 17.7892ZM50.108 19.8424C53.0132 19.8424 54.9148 17.7715 54.9148 15.0457C54.9148 12.3199 53.0132 10.249 50.108 10.249C47.2205 10.249 45.2837 12.3199 45.2837 15.0457C45.2837 17.7715 47.2205 19.8424 50.108 19.8424Z" fill="white"/>
<path d="M59.9436 22.691C61.2817 22.691 62.4614 22.3901 63.2537 21.6821C63.9756 21.0272 64.451 20.036 64.451 18.6731V10.4957H61.7043V11.4692H61.6691C61.1409 10.7081 60.3309 10.2302 59.1337 10.2302C56.8976 10.2302 55.3481 12.1064 55.3481 14.7614C55.3481 17.5403 57.2321 19.0625 59.2569 19.0625C60.3486 19.0625 61.0352 18.62 61.5634 18.0182H61.6339V18.9209C61.6339 20.0183 61.1233 20.6555 59.9084 20.6555C58.9576 20.6555 58.4822 20.2484 58.3237 19.7705H55.5418C55.8235 21.6644 57.461 22.691 59.9436 22.691ZM59.926 16.9208C58.852 16.9208 58.1477 16.0358 58.1477 14.6729C58.1477 13.2923 58.852 12.4073 59.926 12.4073C61.1233 12.4073 61.7571 13.4339 61.7571 14.6552C61.7571 15.9296 61.1761 16.9208 59.926 16.9208Z" fill="white"/>
<path d="M70.0982 17.7892C68.8481 17.7892 68.1967 16.6918 68.1967 15.0457C68.1967 13.3996 68.8481 12.2845 70.0982 12.2845C71.3483 12.2845 72.0174 13.3996 72.0174 15.0457C72.0174 16.6918 71.3483 17.7892 70.0982 17.7892ZM70.1158 19.8424C73.021 19.8424 74.9222 17.7715 74.9222 15.0457C74.9222 12.3199 73.021 10.249 70.1158 10.249C67.2283 10.249 65.2915 12.3199 65.2915 15.0457C65.2915 17.7715 67.2283 19.8424 70.1158 19.8424Z" fill="white"/>
<path d="M75.7607 19.5583H78.6307V10.4959H75.7607V19.5583ZM75.7607 9.23923H78.6307V6.90283H75.7607V9.23923Z" fill="white"/>
<path d="M79.876 22.5494H82.7459V18.62H82.7811C83.3446 19.3811 84.1721 19.8413 85.3342 19.8413C87.6935 19.8413 89.2605 17.9651 89.2605 15.0269C89.2605 12.3011 87.7992 10.2302 85.4046 10.2302C84.1721 10.2302 83.2917 10.7789 82.6755 11.5931H82.6227V10.4957H79.876V22.5494ZM84.5947 17.6111C83.3622 17.6111 82.6579 16.6022 82.6579 15.1331C82.6579 13.664 83.2917 12.5489 84.5418 12.5489C85.7743 12.5489 86.3554 13.5755 86.3554 15.1331C86.3554 16.673 85.6863 17.6111 84.5947 17.6111Z" fill="white"/>
<path d="M93.9325 19.8413C96.2919 19.8413 98.0349 18.8147 98.0349 16.8323C98.0349 14.5136 96.1686 14.1065 94.584 13.841C93.4395 13.6286 92.4183 13.5401 92.4183 12.9029C92.4183 12.3365 92.9641 12.071 93.6684 12.071C94.4607 12.071 95.0065 12.3188 95.1122 13.133H97.7532C97.6124 11.3453 96.239 10.2302 93.686 10.2302C91.5555 10.2302 89.7948 11.2214 89.7948 13.133C89.7948 15.257 91.4675 15.6818 93.0345 15.9473C94.2318 16.1597 95.3235 16.2482 95.3235 17.0624C95.3235 17.6465 94.7776 17.9651 93.9149 17.9651C92.9641 17.9651 92.3655 17.5226 92.2598 16.6199H89.5483C89.6364 18.62 91.2914 19.8413 93.9325 19.8413Z" fill="white"/>
<path d="M101.934 19.824C103.184 19.824 103.976 19.3284 104.628 18.4434H104.681V19.5585H107.427V10.4961H104.557V15.5583C104.557 16.638 103.959 17.3814 102.973 17.3814C102.057 17.3814 101.617 16.8327 101.617 15.8415V10.4961H98.7646V16.4433C98.7646 18.4611 99.8563 19.824 101.934 19.824Z" fill="white"/>
<path d="M108.676 19.5581H111.546V14.4782C111.546 13.3985 112.074 12.6374 112.972 12.6374C113.835 12.6374 114.24 13.2038 114.24 14.1773V19.5581H117.11V14.4782C117.11 13.3985 117.62 12.6374 118.536 12.6374C119.398 12.6374 119.803 13.2038 119.803 14.1773V19.5581H122.673V13.664C122.673 11.6285 121.652 10.2302 119.61 10.2302C118.448 10.2302 117.479 10.7258 116.775 11.8232H116.74C116.282 10.8497 115.384 10.2302 114.204 10.2302C112.901 10.2302 112.039 10.8497 111.475 11.7878H111.422V10.4957H108.676V19.5581Z" fill="white"/>
<path fill-rule="evenodd" clip-rule="evenodd" d="M6.65239 2.8815C5.61516 3.61059 4.67723 4.47261 3.86302 5.44299C7.19026 5.13246 11.4174 5.63952 16.3251 8.10633C21.5658 10.7405 25.7859 10.8295 28.7229 10.26C28.4564 9.4489 28.1208 8.66935 27.7235 7.92828C24.3614 8.28475 20.0513 7.8129 15.0282 5.28817C11.8385 3.6849 9.02679 3.02445 6.65239 2.8815ZM25.7595 5.11811C23.1045 2.136 19.2461 0.259277 14.9516 0.259277C13.6905 0.259277 12.4668 0.421155 11.3003 0.725348C12.8802 1.15871 14.5586 1.79272 16.3251 2.68064C20.0027 4.52913 23.1778 5.12431 25.7595 5.11811ZM29.3508 13.1071C25.8027 13.8114 20.903 13.6668 15.0282 10.7139C9.53589 7.9532 5.16448 7.98797 2.21624 8.64661C2.06406 8.68057 1.91547 8.71628 1.77046 8.75345C1.38446 9.59736 1.07635 10.4848 0.855269 11.4063C1.09139 11.3429 1.33539 11.2826 1.58713 11.2264C5.16385 10.4274 10.2175 10.462 16.3251 13.532C21.8175 16.2927 26.1889 16.2579 29.1371 15.5993C29.2381 15.5767 29.3377 15.5534 29.4356 15.5294C29.4463 15.2996 29.4517 15.0683 29.4517 14.8358C29.4517 14.2509 29.4174 13.6741 29.3508 13.1071ZM28.9621 18.6055C25.4484 19.2231 20.6915 18.986 15.0282 16.1395C9.53589 13.3789 5.16448 13.4137 2.21624 14.0723C1.56182 14.2184 0.973109 14.3965 0.453784 14.5844C0.452368 14.668 0.45166 14.7519 0.45166 14.8358C0.45166 22.8862 6.94353 29.4124 14.9516 29.4124C21.663 29.4124 27.3095 24.8287 28.9621 18.6055Z" fill="#BFF747"/>
</svg>
