<svg width="124" height="30" viewBox="0 0 124 30" fill="none" xmlns="http://www.w3.org/2000/svg">
<path d="M36.7485 19.5148H45.5169V16.8598H39.865V6.85925H36.7485V19.5148Z" fill="white"/>
<path d="M50.712 17.7458C49.4619 17.7458 48.8104 16.6484 48.8104 15.0023C48.8104 13.3562 49.4619 12.2411 50.712 12.2411C51.9621 12.2411 52.6312 13.3562 52.6312 15.0023C52.6312 16.6484 51.9621 17.7458 50.712 17.7458ZM50.7296 19.799C53.6348 19.799 55.5363 17.7281 55.5363 15.0023C55.5363 12.2765 53.6348 10.2056 50.7296 10.2056C47.8421 10.2056 45.9053 12.2765 45.9053 15.0023C45.9053 17.7281 47.8421 19.799 50.7296 19.799Z" fill="white"/>
<path d="M60.5652 22.6476C61.9033 22.6476 63.083 22.3467 63.8753 21.6387C64.5972 20.9838 65.0726 19.9926 65.0726 18.6297V10.4523H62.3259V11.4258H62.2907C61.7625 10.6647 60.9525 10.1868 59.7552 10.1868C57.5192 10.1868 55.9697 12.063 55.9697 14.718C55.9697 17.4969 57.8537 19.0191 59.8785 19.0191C60.9701 19.0191 61.6568 18.5766 62.185 17.9748H62.2555V18.8775C62.2555 19.9749 61.7448 20.6121 60.53 20.6121C59.5792 20.6121 59.1038 20.205 58.9453 19.7271H56.1634C56.4451 21.621 58.0826 22.6476 60.5652 22.6476ZM60.5476 16.8774C59.4735 16.8774 58.7693 15.9924 58.7693 14.6295C58.7693 13.2489 59.4735 12.3639 60.5476 12.3639C61.7448 12.3639 62.3787 13.3905 62.3787 14.6118C62.3787 15.8862 61.7977 16.8774 60.5476 16.8774Z" fill="white"/>
<path d="M70.7198 17.7458C69.4697 17.7458 68.8183 16.6484 68.8183 15.0023C68.8183 13.3562 69.4697 12.2411 70.7198 12.2411C71.9699 12.2411 72.639 13.3562 72.639 15.0023C72.639 16.6484 71.9699 17.7458 70.7198 17.7458ZM70.7374 19.799C73.6426 19.799 75.5438 17.7281 75.5438 15.0023C75.5438 12.2765 73.6426 10.2056 70.7374 10.2056C67.8499 10.2056 65.9131 12.2765 65.9131 15.0023C65.9131 17.7281 67.8499 19.799 70.7374 19.799Z" fill="white"/>
<path d="M76.3823 19.5149H79.2523V10.4525H76.3823V19.5149ZM76.3823 9.19578H79.2523V6.85938H76.3823V9.19578Z" fill="white"/>
<path d="M80.4976 22.506H83.3675V18.5766H83.4027C83.9662 19.3377 84.7937 19.7979 85.9557 19.7979C88.3151 19.7979 89.8821 17.9217 89.8821 14.9835C89.8821 12.2577 88.4207 10.1868 86.0262 10.1868C84.7937 10.1868 83.9133 10.7355 83.2971 11.5497H83.2443V10.4523H80.4976V22.506ZM85.2163 17.5677C83.9838 17.5677 83.2795 16.5588 83.2795 15.0897C83.2795 13.6206 83.9133 12.5055 85.1634 12.5055C86.3959 12.5055 86.977 13.5321 86.977 15.0897C86.977 16.6296 86.3079 17.5677 85.2163 17.5677Z" fill="white"/>
<path d="M94.5541 19.7979C96.9134 19.7979 98.6565 18.7713 98.6565 16.7889C98.6565 14.4702 96.7902 14.0631 95.2055 13.7976C94.0611 13.5852 93.0399 13.4967 93.0399 12.8595C93.0399 12.2931 93.5857 12.0276 94.29 12.0276C95.0823 12.0276 95.6281 12.2754 95.7337 13.0896H98.3748C98.234 11.3019 96.8606 10.1868 94.3076 10.1868C92.1771 10.1868 90.4164 11.178 90.4164 13.0896C90.4164 15.2136 92.0891 15.6384 93.6561 15.9039C94.8534 16.1163 95.945 16.2048 95.945 17.019C95.945 17.6031 95.3992 17.9217 94.5365 17.9217C93.5857 17.9217 92.9871 17.4792 92.8814 16.5765H90.1699C90.258 18.5766 91.913 19.7979 94.5541 19.7979Z" fill="white"/>
<path d="M102.555 19.7808C103.806 19.7808 104.598 19.2852 105.249 18.4002H105.302V19.5153H108.049V10.4529H105.179V15.5151C105.179 16.5948 104.58 17.3382 103.594 17.3382C102.679 17.3382 102.239 16.7895 102.239 15.7983V10.4529H99.3862V16.4001C99.3862 18.4179 100.478 19.7808 102.555 19.7808Z" fill="white"/>
<path d="M109.297 19.5147H112.167V14.4348C112.167 13.3551 112.696 12.594 113.593 12.594C114.456 12.594 114.861 13.1604 114.861 14.1339V19.5147H117.731V14.4348C117.731 13.3551 118.242 12.594 119.157 12.594C120.02 12.594 120.425 13.1604 120.425 14.1339V19.5147H123.295V13.6206C123.295 11.5851 122.274 10.1868 120.231 10.1868C119.069 10.1868 118.101 10.6824 117.397 11.7798H117.361C116.904 10.8063 116.006 10.1868 114.826 10.1868C113.523 10.1868 112.66 10.8063 112.097 11.7444H112.044V10.4523H109.297V19.5147Z" fill="white"/>
<path d="M19.2386 0.780762L16.3533 0.00354004L13.9218 9.1261L11.7265 0.890192L8.84109 1.66741L11.2129 10.5657L5.30526 4.62691L3.19301 6.75032L9.67295 13.2645L1.60322 11.0908L0.830078 13.9914L9.64727 16.3664C9.54632 15.9287 9.49291 15.4727 9.49291 15.0041C9.49291 11.6871 12.1677 8.99815 15.4673 8.99815C18.7668 8.99815 21.4417 11.6871 21.4417 15.0041C21.4417 15.4696 21.3889 15.9229 21.2892 16.358L29.3024 18.5165L30.0755 15.6159L21.2233 13.2314L29.2935 11.0575L28.5204 8.15695L19.6685 10.5413L25.5761 4.60253L23.4638 2.47913L17.0738 8.90294L19.2386 0.780762Z" fill="#BFF747"/>
<path d="M21.2812 16.392C21.0338 17.4433 20.5115 18.3879 19.7949 19.1446L25.6001 24.9805L27.7124 22.8571L21.2812 16.392Z" fill="#BFF747"/>
<path d="M19.736 19.2058C19.0107 19.9505 18.0942 20.5062 17.0664 20.7925L19.1788 28.7177L22.0642 27.9405L19.736 19.2058Z" fill="#BFF747"/>
<path d="M16.9589 20.8212C16.482 20.9445 15.9822 21.01 15.4671 21.01C14.9153 21.01 14.3809 20.9347 13.8736 20.7939L11.7593 28.7264L14.6446 29.5035L16.9589 20.8212Z" fill="#BFF747"/>
<path d="M13.7714 20.7648C12.7593 20.4642 11.859 19.9015 11.1486 19.1547L5.3291 25.0049L7.44136 27.1283L13.7714 20.7648Z" fill="#BFF747"/>
<path d="M11.1007 19.1026C10.4024 18.3511 9.89376 17.4192 9.65166 16.384L1.6123 18.5496L2.38544 21.4501L11.1007 19.1026Z" fill="#BFF747"/>
</svg>
