<svg width="124" height="30" viewBox="0 0 124 30" fill="none" xmlns="http://www.w3.org/2000/svg">
<path d="M36.7866 19.5857H45.5549V16.9307H39.9031V6.93018H36.7866V19.5857Z" fill="white"/>
<path d="M50.7501 17.8168C49.5 17.8168 48.8485 16.7194 48.8485 15.0733C48.8485 13.4272 49.5 12.3121 50.7501 12.3121C52.0002 12.3121 52.6693 13.4272 52.6693 15.0733C52.6693 16.7194 52.0002 17.8168 50.7501 17.8168ZM50.7677 19.87C53.6729 19.87 55.5744 17.7991 55.5744 15.0733C55.5744 12.3475 53.6729 10.2766 50.7677 10.2766C47.8801 10.2766 45.9434 12.3475 45.9434 15.0733C45.9434 17.7991 47.8801 19.87 50.7677 19.87Z" fill="white"/>
<path d="M60.6033 22.7186C61.9414 22.7186 63.1211 22.4177 63.9134 21.7097C64.6353 21.0548 65.1107 20.0636 65.1107 18.7007V10.5233H62.364V11.4968H62.3288C61.8005 10.7357 60.9906 10.2578 59.7933 10.2578C57.5572 10.2578 56.0078 12.134 56.0078 14.789C56.0078 17.5679 57.8918 19.0901 59.9166 19.0901C61.0082 19.0901 61.6949 18.6476 62.2231 18.0458H62.2935V18.9485C62.2935 20.0459 61.7829 20.6831 60.568 20.6831C59.6173 20.6831 59.1419 20.276 58.9834 19.7981H56.2015C56.4832 21.692 58.1207 22.7186 60.6033 22.7186ZM60.5857 16.9484C59.5116 16.9484 58.8073 16.0634 58.8073 14.7005C58.8073 13.3199 59.5116 12.4349 60.5857 12.4349C61.7829 12.4349 62.4168 13.4615 62.4168 14.6828C62.4168 15.9572 61.8358 16.9484 60.5857 16.9484Z" fill="white"/>
<path d="M70.7579 17.8168C69.5078 17.8168 68.8563 16.7194 68.8563 15.0733C68.8563 13.4272 69.5078 12.3121 70.7579 12.3121C72.008 12.3121 72.6771 13.4272 72.6771 15.0733C72.6771 16.7194 72.008 17.8168 70.7579 17.8168ZM70.7755 19.87C73.6807 19.87 75.5819 17.7991 75.5819 15.0733C75.5819 12.3475 73.6807 10.2766 70.7755 10.2766C67.8879 10.2766 65.9512 12.3475 65.9512 15.0733C65.9512 17.7991 67.8879 19.87 70.7755 19.87Z" fill="white"/>
<path d="M76.4204 19.5857H79.2904V10.5233H76.4204V19.5857ZM76.4204 9.26658H79.2904V6.93018H76.4204V9.26658Z" fill="white"/>
<path d="M80.5356 22.577H83.4056V18.6476H83.4408C84.0042 19.4087 84.8318 19.8689 85.9938 19.8689C88.3532 19.8689 89.9202 17.9927 89.9202 15.0545C89.9202 12.3287 88.4588 10.2578 86.0643 10.2578C84.8318 10.2578 83.9514 10.8065 83.3352 11.6207H83.2823V10.5233H80.5356V22.577ZM85.2543 17.6387C84.0218 17.6387 83.3176 16.6298 83.3176 15.1607C83.3176 13.6916 83.9514 12.5765 85.2015 12.5765C86.434 12.5765 87.015 13.6031 87.015 15.1607C87.015 16.7006 86.346 17.6387 85.2543 17.6387Z" fill="white"/>
<path d="M94.5922 19.8689C96.9515 19.8689 98.6946 18.8423 98.6946 16.8599C98.6946 14.5412 96.8283 14.1341 95.2436 13.8686C94.0992 13.6562 93.078 13.5677 93.078 12.9305C93.078 12.3641 93.6238 12.0986 94.3281 12.0986C95.1204 12.0986 95.6662 12.3464 95.7718 13.1606H98.4129C98.272 11.3729 96.8987 10.2578 94.3457 10.2578C92.2152 10.2578 90.4545 11.249 90.4545 13.1606C90.4545 15.2846 92.1272 15.7094 93.6942 15.9749C94.8915 16.1873 95.9831 16.2758 95.9831 17.09C95.9831 17.6741 95.4373 17.9927 94.5746 17.9927C93.6238 17.9927 93.0251 17.5502 92.9195 16.6475H90.208C90.296 18.6476 91.9511 19.8689 94.5922 19.8689Z" fill="white"/>
<path d="M102.594 19.8516C103.844 19.8516 104.636 19.356 105.287 18.471H105.34V19.5861H108.087V10.5237H105.217V15.5859C105.217 16.6656 104.618 17.409 103.632 17.409C102.717 17.409 102.277 16.8603 102.277 15.8691V10.5237H99.4243V16.4709C99.4243 18.4887 100.516 19.8516 102.594 19.8516Z" fill="white"/>
<path d="M109.335 19.5857H112.205V14.5058C112.205 13.4261 112.734 12.665 113.632 12.665C114.494 12.665 114.899 13.2314 114.899 14.2049V19.5857H117.769V14.5058C117.769 13.4261 118.28 12.665 119.195 12.665C120.058 12.665 120.463 13.2314 120.463 14.2049V19.5857H123.333V13.6916C123.333 11.6561 122.312 10.2578 120.269 10.2578C119.107 10.2578 118.139 10.7534 117.435 11.8508H117.399C116.942 10.8773 116.044 10.2578 114.864 10.2578C113.561 10.2578 112.698 10.8773 112.135 11.8154H112.082V10.5233H109.335V19.5857Z" fill="white"/>
<path fill-rule="evenodd" clip-rule="evenodd" d="M19.5054 8.80343C18.3132 8.0026 16.9114 7.57514 15.4775 7.57514V0.286865C18.3454 0.286865 21.1488 1.14177 23.5333 2.74346C25.9178 4.34514 27.7763 6.62169 28.8738 9.28519C29.9712 11.9487 30.2584 14.8796 29.6989 17.7072C29.1394 20.5347 27.7585 23.132 25.7306 25.1706C23.7027 27.2092 21.1191 28.5974 18.3063 29.1599C15.4936 29.7223 12.5781 29.4336 9.92861 28.3304C7.2791 27.2271 5.01451 25.3588 3.42123 22.9617C1.82795 20.5646 0.977539 17.7464 0.977539 14.8634H8.22754C8.22754 16.3049 8.65275 17.714 9.44938 18.9126C10.246 20.1111 11.3783 21.0453 12.7031 21.5969C14.0278 22.1486 15.4856 22.2929 16.8919 22.0116C18.2983 21.7304 19.5901 21.0363 20.6041 20.017C21.618 18.9977 22.3085 17.6991 22.5882 16.2853C22.868 14.8715 22.7244 13.406 22.1757 12.0743C21.6269 10.7425 20.6977 9.60427 19.5054 8.80343Z" fill="#BFF747"/>
<path fill-rule="evenodd" clip-rule="evenodd" d="M8.22754 0.286869C8.22754 1.24398 8.04002 2.19172 7.67567 3.07597C7.31132 3.96022 6.77729 4.76368 6.10406 5.44046C5.43084 6.11724 4.63161 6.65409 3.75199 7.02036C2.87238 7.38662 1.92962 7.57514 0.977539 7.57514L0.977539 14.8634C2.8817 14.8634 4.76723 14.4864 6.52645 13.7538C8.28568 13.0213 9.88416 11.9476 11.2306 10.594C12.577 9.24051 13.6451 7.63359 14.3738 5.86507C15.1025 4.09656 15.4775 2.20108 15.4775 0.286865L8.22754 0.286869Z" fill="#BFF747"/>
</svg>
