<svg width="124" height="30" viewBox="0 0 124 30" fill="none" xmlns="http://www.w3.org/2000/svg">
<path d="M36.8818 19.515H45.6502V16.86H39.9983V6.8595H36.8818V19.515Z" fill="white"/>
<path d="M50.8453 17.7457C49.5952 17.7457 48.9437 16.6482 48.9437 15.0021C48.9437 13.356 49.5952 12.2409 50.8453 12.2409C52.0954 12.2409 52.7645 13.356 52.7645 15.0021C52.7645 16.6482 52.0954 17.7457 50.8453 17.7457ZM50.8629 19.7989C53.7681 19.7989 55.6696 17.7279 55.6696 15.0021C55.6696 12.2763 53.7681 10.2054 50.8629 10.2054C47.9754 10.2054 46.0386 12.2763 46.0386 15.0021C46.0386 17.7279 47.9754 19.7989 50.8629 19.7989Z" fill="white"/>
<path d="M60.6985 22.6476C62.0366 22.6476 63.2163 22.3467 64.0086 21.6387C64.7305 20.9838 65.2059 19.9926 65.2059 18.6297V10.4523H62.4592V11.4258H62.424C61.8958 10.6647 61.0858 10.1868 59.8885 10.1868C57.6525 10.1868 56.103 12.063 56.103 14.718C56.103 17.4969 57.987 19.0191 60.0118 19.0191C61.1034 19.0191 61.7901 18.5766 62.3183 17.9748H62.3888V18.8775C62.3888 19.9749 61.8781 20.6121 60.6633 20.6121C59.7125 20.6121 59.2371 20.205 59.0786 19.7271H56.2967C56.5784 21.621 58.2159 22.6476 60.6985 22.6476ZM60.6809 16.8774C59.6068 16.8774 58.9026 15.9924 58.9026 14.6295C58.9026 13.2489 59.6068 12.3639 60.6809 12.3639C61.8781 12.3639 62.512 13.3905 62.512 14.6118C62.512 15.8862 61.931 16.8774 60.6809 16.8774Z" fill="white"/>
<path d="M70.8531 17.7457C69.603 17.7457 68.9516 16.6482 68.9516 15.0021C68.9516 13.356 69.603 12.2409 70.8531 12.2409C72.1032 12.2409 72.7723 13.356 72.7723 15.0021C72.7723 16.6482 72.1032 17.7457 70.8531 17.7457ZM70.8707 19.7989C73.7759 19.7989 75.6771 17.7279 75.6771 15.0021C75.6771 12.2763 73.7759 10.2054 70.8707 10.2054C67.9832 10.2054 66.0464 12.2763 66.0464 15.0021C66.0464 17.7279 67.9832 19.7989 70.8707 19.7989Z" fill="white"/>
<path d="M76.5156 19.5149H79.3856V10.4525H76.5156V19.5149ZM76.5156 9.19578H79.3856V6.85938H76.5156V9.19578Z" fill="white"/>
<path d="M80.6309 22.506H83.5008V18.5766H83.536C84.0995 19.3377 84.927 19.7979 86.089 19.7979C88.4484 19.7979 90.0154 17.9217 90.0154 14.9835C90.0154 12.2577 88.554 10.1868 86.1595 10.1868C84.927 10.1868 84.0466 10.7355 83.4304 11.5497H83.3776V10.4523H80.6309V22.506ZM85.3496 17.5677C84.1171 17.5677 83.4128 16.5588 83.4128 15.0897C83.4128 13.6206 84.0466 12.5055 85.2967 12.5055C86.5292 12.5055 87.1103 13.5321 87.1103 15.0897C87.1103 16.6296 86.4412 17.5677 85.3496 17.5677Z" fill="white"/>
<path d="M94.6874 19.7979C97.0467 19.7979 98.7898 18.7713 98.7898 16.7889C98.7898 14.4702 96.9235 14.0631 95.3388 13.7976C94.1944 13.5852 93.1732 13.4967 93.1732 12.8595C93.1732 12.2931 93.719 12.0276 94.4233 12.0276C95.2156 12.0276 95.7614 12.2754 95.8671 13.0896H98.5081C98.3673 11.3019 96.9939 10.1868 94.4409 10.1868C92.3104 10.1868 90.5497 11.178 90.5497 13.0896C90.5497 15.2136 92.2224 15.6384 93.7894 15.9039C94.9867 16.1163 96.0783 16.2048 96.0783 17.019C96.0783 17.6031 95.5325 17.9217 94.6698 17.9217C93.719 17.9217 93.1204 17.4792 93.0147 16.5765H90.3032C90.3913 18.5766 92.0463 19.7979 94.6874 19.7979Z" fill="white"/>
<path d="M102.689 19.7812C103.939 19.7812 104.731 19.2856 105.383 18.4006H105.436V19.5157H108.182V10.4532H105.312V15.5155C105.312 16.5952 104.714 17.3386 103.728 17.3386C102.812 17.3386 102.372 16.7899 102.372 15.7987V10.4532H99.5195V16.4005C99.5195 18.4183 100.611 19.7812 102.689 19.7812Z" fill="white"/>
<path d="M109.431 19.5147H112.301V14.4348C112.301 13.3551 112.829 12.594 113.727 12.594C114.59 12.594 114.994 13.1604 114.994 14.1339V19.5147H117.864V14.4348C117.864 13.3551 118.375 12.594 119.291 12.594C120.153 12.594 120.558 13.1604 120.558 14.1339V19.5147H123.428V13.6206C123.428 11.5851 122.407 10.1868 120.365 10.1868C119.203 10.1868 118.234 10.6824 117.53 11.7798H117.495C117.037 10.8063 116.139 10.1868 114.959 10.1868C113.656 10.1868 112.794 10.8063 112.23 11.7444H112.177V10.4523H109.431V19.5147Z" fill="white"/>
<path fill-rule="evenodd" clip-rule="evenodd" d="M15.3819 29.33C23.39 29.33 29.8819 22.8038 29.8819 14.7534C29.8819 6.70303 23.39 0.17688 15.3819 0.17688C7.3737 0.17688 0.881836 6.70303 0.881836 14.7534C0.881836 22.8038 7.3737 29.33 15.3819 29.33ZM19.9054 6.96725C20.1255 6.181 19.3665 5.71606 18.6734 6.21252L8.99685 13.1424C8.2451 13.6808 8.36335 14.7534 9.17448 14.7534H11.7226V14.7336H16.6887L12.6422 16.1689L10.8584 22.5396C10.6382 23.3259 11.3971 23.7908 12.0904 23.2943L21.7669 16.3645C22.5186 15.8261 22.4003 14.7534 21.5892 14.7534H17.7251L19.9054 6.96725Z" fill="#BFF747"/>
</svg>
