<svg width="123" height="30" viewBox="0 0 123 30" fill="none" xmlns="http://www.w3.org/2000/svg">
<path d="M36.127 19.5585H44.8953V16.9035H39.2434V6.90295H36.127V19.5585Z" fill="white"/>
<path d="M50.0904 17.7895C48.8403 17.7895 48.1889 16.6921 48.1889 15.046C48.1889 13.3999 48.8403 12.2848 50.0904 12.2848C51.3405 12.2848 52.0096 13.3999 52.0096 15.046C52.0096 16.6921 51.3405 17.7895 50.0904 17.7895ZM50.108 19.8427C53.0132 19.8427 54.9148 17.7718 54.9148 15.046C54.9148 12.3202 53.0132 10.2493 50.108 10.2493C47.2205 10.2493 45.2837 12.3202 45.2837 15.046C45.2837 17.7718 47.2205 19.8427 50.108 19.8427Z" fill="white"/>
<path d="M59.9436 22.6913C61.2817 22.6913 62.4614 22.3904 63.2537 21.6824C63.9756 21.0275 64.451 20.0363 64.451 18.6734V10.496H61.7043V11.4695H61.6691C61.1409 10.7084 60.3309 10.2305 59.1337 10.2305C56.8976 10.2305 55.3481 12.1067 55.3481 14.7617C55.3481 17.5406 57.2321 19.0628 59.2569 19.0628C60.3486 19.0628 61.0352 18.6203 61.5634 18.0185H61.6339V18.9212C61.6339 20.0186 61.1233 20.6558 59.9084 20.6558C58.9576 20.6558 58.4822 20.2487 58.3237 19.7708H55.5418C55.8235 21.6647 57.461 22.6913 59.9436 22.6913ZM59.926 16.9211C58.852 16.9211 58.1477 16.0361 58.1477 14.6732C58.1477 13.2926 58.852 12.4076 59.926 12.4076C61.1233 12.4076 61.7571 13.4342 61.7571 14.6555C61.7571 15.9299 61.1761 16.9211 59.926 16.9211Z" fill="white"/>
<path d="M70.0982 17.7895C68.8481 17.7895 68.1967 16.6921 68.1967 15.046C68.1967 13.3999 68.8481 12.2848 70.0982 12.2848C71.3483 12.2848 72.0174 13.3999 72.0174 15.046C72.0174 16.6921 71.3483 17.7895 70.0982 17.7895ZM70.1158 19.8427C73.021 19.8427 74.9222 17.7718 74.9222 15.046C74.9222 12.3202 73.021 10.2493 70.1158 10.2493C67.2283 10.2493 65.2915 12.3202 65.2915 15.046C65.2915 17.7718 67.2283 19.8427 70.1158 19.8427Z" fill="white"/>
<path d="M75.7607 19.5586H78.6307V10.4962H75.7607V19.5586ZM75.7607 9.23948H78.6307V6.90308H75.7607V9.23948Z" fill="white"/>
<path d="M79.876 22.5497H82.7459V18.6203H82.7811C83.3446 19.3814 84.1721 19.8416 85.3342 19.8416C87.6935 19.8416 89.2605 17.9654 89.2605 15.0272C89.2605 12.3014 87.7992 10.2305 85.4046 10.2305C84.1721 10.2305 83.2917 10.7792 82.6755 11.5934H82.6227V10.496H79.876V22.5497ZM84.5947 17.6114C83.3622 17.6114 82.6579 16.6025 82.6579 15.1334C82.6579 13.6643 83.2917 12.5492 84.5418 12.5492C85.7743 12.5492 86.3554 13.5758 86.3554 15.1334C86.3554 16.6733 85.6863 17.6114 84.5947 17.6114Z" fill="white"/>
<path d="M93.9325 19.8416C96.2919 19.8416 98.0349 18.815 98.0349 16.8326C98.0349 14.5139 96.1686 14.1068 94.584 13.8413C93.4395 13.6289 92.4183 13.5404 92.4183 12.9032C92.4183 12.3368 92.9641 12.0713 93.6684 12.0713C94.4607 12.0713 95.0065 12.3191 95.1122 13.1333H97.7532C97.6124 11.3456 96.239 10.2305 93.686 10.2305C91.5555 10.2305 89.7948 11.2217 89.7948 13.1333C89.7948 15.2573 91.4675 15.6821 93.0345 15.9476C94.2318 16.16 95.3235 16.2485 95.3235 17.0627C95.3235 17.6468 94.7776 17.9654 93.9149 17.9654C92.9641 17.9654 92.3655 17.5229 92.2598 16.6202H89.5483C89.6364 18.6203 91.2914 19.8416 93.9325 19.8416Z" fill="white"/>
<path d="M101.934 19.8245C103.184 19.8245 103.976 19.3289 104.628 18.4439H104.681V19.559H107.427V10.4966H104.557V15.5588C104.557 16.6385 103.959 17.3819 102.973 17.3819C102.057 17.3819 101.617 16.8332 101.617 15.842V10.4966H98.7646V16.4438C98.7646 18.4616 99.8563 19.8245 101.934 19.8245Z" fill="white"/>
<path d="M108.676 19.5584H111.546V14.4785C111.546 13.3988 112.074 12.6377 112.972 12.6377C113.835 12.6377 114.24 13.2041 114.24 14.1776V19.5584H117.11V14.4785C117.11 13.3988 117.62 12.6377 118.536 12.6377C119.398 12.6377 119.803 13.2041 119.803 14.1776V19.5584H122.673V13.6643C122.673 11.6288 121.652 10.2305 119.61 10.2305C118.448 10.2305 117.479 10.7261 116.775 11.8235H116.74C116.282 10.85 115.384 10.2305 114.204 10.2305C112.901 10.2305 112.039 10.85 111.475 11.7881H111.422V10.496H108.676V19.5584Z" fill="white"/>
<path fill-rule="evenodd" clip-rule="evenodd" d="M6.65239 2.8815C5.61516 3.61059 4.67723 4.47261 3.86302 5.44299C7.19026 5.13246 11.4174 5.63952 16.3251 8.10633C21.5658 10.7405 25.7859 10.8295 28.7229 10.26C28.4564 9.4489 28.1208 8.66935 27.7235 7.92828C24.3614 8.28475 20.0513 7.8129 15.0282 5.28817C11.8385 3.6849 9.02679 3.02445 6.65239 2.8815ZM25.7595 5.11811C23.1045 2.136 19.2461 0.259277 14.9516 0.259277C13.6905 0.259277 12.4668 0.421155 11.3003 0.725348C12.8802 1.15871 14.5586 1.79272 16.3251 2.68064C20.0027 4.52913 23.1778 5.12431 25.7595 5.11811ZM29.3508 13.1071C25.8027 13.8114 20.903 13.6668 15.0282 10.7139C9.53589 7.9532 5.16448 7.98797 2.21624 8.64661C2.06406 8.68057 1.91547 8.71628 1.77046 8.75345C1.38446 9.59736 1.07635 10.4848 0.855269 11.4063C1.09139 11.3429 1.33539 11.2826 1.58713 11.2264C5.16385 10.4274 10.2175 10.462 16.3251 13.532C21.8175 16.2927 26.1889 16.2579 29.1371 15.5993C29.2381 15.5767 29.3377 15.5534 29.4356 15.5294C29.4463 15.2996 29.4517 15.0683 29.4517 14.8358C29.4517 14.2509 29.4174 13.6741 29.3508 13.1071ZM28.9621 18.6055C25.4484 19.2231 20.6915 18.986 15.0282 16.1395C9.53589 13.3789 5.16448 13.4137 2.21624 14.0723C1.56182 14.2184 0.973109 14.3965 0.453784 14.5844C0.452368 14.668 0.45166 14.7519 0.45166 14.8358C0.45166 22.8862 6.94353 29.4124 14.9516 29.4124C21.663 29.4124 27.3095 24.8287 28.9621 18.6055Z" fill="#BFF747"/>
</svg>
