<svg width="31" height="31" viewBox="0 0 31 31" fill="none" xmlns="http://www.w3.org/2000/svg">
<path d="M23.1557 21.5546C22.8451 21.2879 22.483 21.0878 22.0919 20.9666C21.7008 20.8454 21.289 20.8058 20.882 20.8502C20.475 20.8946 20.0814 21.0221 19.7256 21.2247C19.3698 21.4274 19.0594 21.7009 18.8136 22.0283L18.7347 22.1467C18.5572 22.3889 18.3145 22.5754 18.0348 22.6844C17.7552 22.7935 17.4502 22.8206 17.1557 22.7625C14.9763 22.3927 12.9666 21.3518 11.4071 19.7852C9.84748 18.2185 8.81574 16.2041 8.45573 14.0231C8.39767 13.7286 8.42477 13.4236 8.53383 13.144C8.64289 12.8643 8.82941 12.6216 9.07152 12.4441L9.18994 12.3652C9.51738 12.1194 9.79088 11.809 9.99352 11.4532C10.1962 11.0974 10.3236 10.7038 10.368 10.2968C10.4124 9.88978 10.3728 9.47797 10.2517 9.08687C10.1305 8.69577 9.93036 8.3337 9.66363 8.02307L8.45573 6.64938C8.14376 6.28453 7.751 5.99746 7.30865 5.811C6.8663 5.62453 6.38656 5.5438 5.90754 5.57522C5.42853 5.60665 4.96344 5.74936 4.54925 5.99201C4.13505 6.23467 3.78315 6.57058 3.52152 6.97307L2.14784 9.08886C1.4592 10.3371 1.24073 11.7907 1.53205 13.1862C2.38618 17.2403 4.40069 20.9585 7.33025 23.888C10.2598 26.8176 13.978 28.8321 18.032 29.6862C18.429 29.7712 18.834 29.8135 19.2399 29.8125C20.2679 29.8057 21.2767 29.5337 22.1689 29.0231L24.2452 27.681C24.6477 27.4193 24.9836 27.0674 25.2263 26.6532C25.4689 26.239 25.6116 25.774 25.643 25.2949C25.6745 24.8159 25.5937 24.3362 25.4073 23.8938C25.2208 23.4515 24.9337 23.0587 24.5689 22.7467L23.1557 21.5546Z" fill="#BFF747"/>
<path d="M21.5362 1.39149C20.1171 1.38981 18.7214 1.75284 17.4829 2.44575C16.2444 3.13866 15.2048 4.13819 14.4637 5.34846C13.7227 6.55872 13.3051 7.93912 13.2509 9.35721C13.1968 10.7753 13.508 12.1835 14.1547 13.4467L13.2468 16.9915C13.2133 17.1236 13.2147 17.2621 13.2507 17.3935C13.2866 17.5249 13.356 17.6448 13.452 17.7415C13.5286 17.8176 13.6199 17.8771 13.7204 17.9165C13.8209 17.9559 13.9284 17.9742 14.0362 17.9704C14.0992 17.978 14.1628 17.978 14.2257 17.9704L17.7705 17.0862C18.8868 17.6478 20.1157 17.9497 21.3652 17.9693C22.6147 17.989 23.8525 17.7258 24.9859 17.1996C26.1194 16.6735 27.1192 15.8978 27.9107 14.9307C28.7021 13.9636 29.2646 12.8301 29.5562 11.6149C29.8478 10.3998 29.8608 9.13442 29.5944 7.9135C29.3279 6.69258 28.7889 5.5477 28.0176 4.56448C27.2463 3.58126 26.2627 2.78515 25.1403 2.23569C24.018 1.68622 22.7859 1.39763 21.5362 1.39149ZM21.931 14.8125C21.7748 14.8125 21.6222 14.7662 21.4924 14.6795C21.3625 14.5927 21.2614 14.4694 21.2016 14.3252C21.1418 14.1809 21.1262 14.0222 21.1567 13.869C21.1871 13.7159 21.2623 13.5752 21.3727 13.4648C21.4831 13.3544 21.6238 13.2792 21.777 13.2488C21.9301 13.2183 22.0888 13.2339 22.2331 13.2937C22.3774 13.3534 22.5007 13.4546 22.5874 13.5845C22.6741 13.7143 22.7205 13.8669 22.7205 14.0231C22.7205 14.2324 22.6373 14.4333 22.4892 14.5813C22.3412 14.7294 22.1404 14.8125 21.931 14.8125ZM23.2336 9.89412C23.07 10.0546 22.9404 10.2464 22.8522 10.4579C22.7641 10.6694 22.7193 10.8965 22.7205 11.1257V11.6546C22.7205 11.864 22.6373 12.0648 22.4892 12.2129C22.3412 12.3609 22.1404 12.4441 21.931 12.4441C21.7216 12.4441 21.5208 12.3609 21.3727 12.2129C21.2247 12.0648 21.1415 11.864 21.1415 11.6546V11.1257C21.1388 10.6863 21.2232 10.2508 21.3899 9.84425C21.5566 9.43772 21.8022 9.06827 22.1126 8.75728C22.3046 8.56881 22.4573 8.34401 22.5616 8.09598C22.666 7.84795 22.72 7.58163 22.7205 7.31254C22.7205 6.99847 22.5957 6.69726 22.3736 6.47517C22.1515 6.25309 21.8503 6.12833 21.5362 6.12833C21.2222 6.12833 20.921 6.25309 20.6989 6.47517C20.4768 6.69726 20.352 6.99847 20.352 7.31254V7.70728C20.352 7.91666 20.2689 8.11746 20.1208 8.26552C19.9727 8.41357 19.7719 8.49675 19.5626 8.49675C19.3532 8.49675 19.1524 8.41357 19.0043 8.26552C18.8563 8.11746 18.7731 7.91666 18.7731 7.70728V7.31254C18.7731 6.5797 19.0642 5.87688 19.5824 5.35869C20.1006 4.8405 20.8034 4.54938 21.5362 4.54938C22.2691 4.54938 22.9719 4.8405 23.4901 5.35869C24.0083 5.87688 24.2994 6.5797 24.2994 7.31254C24.3001 7.79176 24.2063 8.26642 24.0234 8.70938C23.8405 9.15234 23.5721 9.55493 23.2336 9.89412Z" fill="#BFF747"/>
</svg>
