<svg width="166" height="51" viewBox="0 0 166 51" fill="none" xmlns="http://www.w3.org/2000/svg">
<path d="M33.4106 6.19672L23.5409 0.49841C22.7372 0.0343842 21.4222 0.0343842 20.6187 0.49841L10.8223 6.15428L33.4106 6.19672Z" fill="#BFF747"/>
<path d="M17.7048 48.1202L44.1591 19.2411V14.9961L6.66455 41.7458L17.7048 48.1202Z" fill="#BFF747"/>
<path d="M36.5131 7.98779L34.6433 6.9082L5.12289 9.44448L1.46115 11.5587C0.65761 12.0227 0 13.1614 0 14.0895V21.9092L36.5131 7.98779Z" fill="#BFF747"/>
<path d="M18.7412 48.7183L20.6186 49.8024C21.4221 50.2664 22.7371 50.2664 23.5408 49.8024L42.6981 38.742C43.5019 38.2779 44.1593 37.1392 44.1593 36.2113V25.4346L18.7412 48.7183Z" fill="#BFF747"/>
<path d="M1.46116 38.7418L1.99527 39.0501L44.1593 14.2261V14.0899C44.1593 13.162 43.502 12.0232 42.6982 11.5592L41.8328 11.0596L0 22.9383V36.211C0 37.1391 0.657618 38.2778 1.46116 38.7418Z" fill="#BFF747"/>
<path d="M163.346 34.4508C162.646 34.4508 162.036 34.2008 161.516 33.7008C161.016 33.2008 160.766 32.6008 160.766 31.9008C160.766 31.2008 161.016 30.6108 161.516 30.1309C162.036 29.6309 162.646 29.3809 163.346 29.3809C164.026 29.3809 164.616 29.6309 165.116 30.1309C165.616 30.6108 165.866 31.2008 165.866 31.9008C165.866 32.6008 165.616 33.2008 165.116 33.7008C164.616 34.2008 164.026 34.4508 163.346 34.4508Z" fill="#BFF747"/>
<path d="M151.188 34.6305C149.588 34.6305 148.178 34.2905 146.958 33.6105C145.758 32.9305 144.818 31.9805 144.138 30.7605C143.458 29.5406 143.118 28.1306 143.118 26.5306C143.118 24.9306 143.458 23.5206 144.138 22.3006C144.818 21.0806 145.758 20.1306 146.958 19.4507C148.178 18.7707 149.588 18.4307 151.188 18.4307C152.428 18.4307 153.528 18.6307 154.488 19.0307C155.468 19.4107 156.288 20.0007 156.948 20.8006C157.628 21.6006 158.148 22.6006 158.508 23.8006L155.178 24.7306H154.818C154.558 23.8906 154.078 23.2306 153.378 22.7506C152.698 22.2506 151.968 22.0006 151.188 22.0006C150.368 22.0006 149.658 22.1906 149.058 22.5706C148.458 22.9306 147.988 23.4506 147.648 24.1306C147.328 24.7906 147.168 25.5906 147.168 26.5306C147.168 27.4506 147.328 28.2506 147.648 28.9306C147.988 29.6106 148.458 30.1406 149.058 30.5205C149.658 30.8805 150.368 31.0605 151.188 31.0605C151.768 31.0605 152.308 30.9505 152.808 30.7305C153.328 30.5106 153.778 30.2006 154.158 29.8006C154.538 29.3806 154.808 28.8906 154.968 28.3306H155.328L158.658 29.2606C158.298 30.4606 157.778 31.4605 157.098 32.2605C156.418 33.0605 155.588 33.6605 154.608 34.0605C153.628 34.4405 152.488 34.6305 151.188 34.6305Z" fill="white"/>
<path d="M136.222 34.1504V18.9105H140.272V34.1504H136.222ZM138.262 16.9905C137.582 16.9905 137.002 16.7505 136.522 16.2705C136.042 15.7906 135.802 15.2106 135.802 14.5306C135.802 13.8706 136.042 13.3006 136.522 12.8206C137.002 12.3406 137.582 12.1006 138.262 12.1006C138.922 12.1006 139.492 12.3406 139.972 12.8206C140.452 13.3006 140.692 13.8706 140.692 14.5306C140.692 15.2106 140.452 15.7906 139.972 16.2705C139.492 16.7505 138.922 16.9905 138.262 16.9905Z" fill="white"/>
<path d="M130.34 34.1501C128.76 34.1501 127.5 33.6601 126.56 32.6801C125.64 31.6802 125.18 30.3302 125.18 28.6302V15.0703H129.23V28.1802C129.23 28.9202 129.44 29.5102 129.86 29.9502C130.3 30.3702 130.89 30.5802 131.63 30.5802H133.07L133.22 30.9102V34.1501H130.34ZM122.6 22.4802V18.9103H133.22V22.4802H122.6Z" fill="white"/>
<path d="M115.175 34.6305C113.475 34.6305 112.015 34.2405 110.795 33.4605C109.595 32.6605 108.795 31.5805 108.395 30.2206L112.085 29.2906L112.445 29.3806C112.605 29.9406 112.945 30.3806 113.465 30.7005C114.005 31.0205 114.625 31.1805 115.325 31.1805C116.005 31.1805 116.575 31.0505 117.035 30.7905C117.495 30.5105 117.725 30.1506 117.725 29.7106C117.725 29.3306 117.585 29.0306 117.305 28.8106C117.025 28.5906 116.605 28.4206 116.045 28.3006L113.165 27.6706C111.745 27.3506 110.645 26.8106 109.865 26.0506C109.105 25.2706 108.725 24.3206 108.725 23.2006C108.725 22.2406 108.995 21.4106 109.535 20.7106C110.075 19.9906 110.815 19.4307 111.755 19.0307C112.715 18.6307 113.795 18.4307 114.995 18.4307C116.615 18.4307 117.985 18.8307 119.105 19.6307C120.245 20.4106 120.995 21.5006 121.355 22.9006L117.935 23.6506L117.605 23.5906C117.465 23.0906 117.125 22.6806 116.585 22.3606C116.065 22.0406 115.475 21.8806 114.815 21.8806C114.215 21.8806 113.705 21.9906 113.285 22.2106C112.885 22.4306 112.685 22.7406 112.685 23.1406C112.685 23.4006 112.795 23.6506 113.015 23.8906C113.255 24.1106 113.615 24.2706 114.095 24.3706L116.975 25.0306C118.515 25.3906 119.685 25.9206 120.485 26.6206C121.285 27.3006 121.685 28.2506 121.685 29.4706C121.685 30.5105 121.405 31.4205 120.845 32.2005C120.285 32.9805 119.515 33.5805 118.535 34.0005C117.555 34.4205 116.435 34.6305 115.175 34.6305Z" fill="white"/>
<path d="M101.799 34.1504V18.9105H105.849V34.1504H101.799ZM103.839 16.9905C103.159 16.9905 102.579 16.7505 102.099 16.2705C101.619 15.7906 101.379 15.2106 101.379 14.5306C101.379 13.8706 101.619 13.3006 102.099 12.8206C102.579 12.3406 103.159 12.1006 103.839 12.1006C104.499 12.1006 105.069 12.3406 105.549 12.8206C106.029 13.3006 106.269 13.8706 106.269 14.5306C106.269 15.2106 106.029 15.7906 105.549 16.2705C105.069 16.7505 104.499 16.9905 103.839 16.9905Z" fill="white"/>
<path d="M95.9169 34.1501C94.3369 34.1501 93.077 33.6601 92.137 32.6801C91.217 31.6802 90.757 30.3302 90.757 28.6302V15.0703H94.8069V28.1802C94.8069 28.9202 95.0169 29.5102 95.4369 29.9502C95.8769 30.3702 96.4669 30.5802 97.2069 30.5802H98.6469L98.7969 30.9102V34.1501H95.9169ZM88.177 22.4802V18.9103H98.7969V22.4802H88.177Z" fill="white"/>
<path d="M77.6875 34.15V18.9102H81.4375V22.5401L80.4475 22.7501C80.9275 21.5501 81.6575 20.6101 82.6375 19.9301C83.6174 19.2502 84.7474 18.9102 86.0274 18.9102H87.4374V22.4801H85.4274C84.6674 22.4801 84.0074 22.6401 83.4474 22.9601C82.9075 23.2801 82.4875 23.7501 82.1875 24.3701C81.8875 24.9701 81.7375 25.6901 81.7375 26.5301V34.15H77.6875Z" fill="white"/>
<path d="M65.5789 34.6305C64.5389 34.6305 63.609 34.4305 62.789 34.0305C61.989 33.6305 61.359 33.0705 60.899 32.3505C60.439 31.6305 60.209 30.8105 60.209 29.8906C60.209 28.4106 60.709 27.2406 61.709 26.3806C62.729 25.5006 64.2089 24.9806 66.1489 24.8206L72.0589 24.3106V27.5506L66.6589 28.0006C65.7989 28.0806 65.1889 28.2606 64.8289 28.5406C64.4889 28.8206 64.3189 29.1806 64.3189 29.6206C64.3189 30.0606 64.5289 30.4206 64.9489 30.7005C65.3689 30.9605 65.8989 31.0905 66.5389 31.0905C67.2389 31.0905 67.8689 30.9105 68.4289 30.5505C69.0089 30.1906 69.4689 29.7306 69.8089 29.1706C70.1489 28.5906 70.3189 27.9806 70.3189 27.3406V24.8506C70.3189 23.9906 70.0189 23.2806 69.4189 22.7206C68.8189 22.1606 68.0589 21.8806 67.1389 21.8806C66.2789 21.8806 65.5889 22.1006 65.0689 22.5406C64.5489 22.9606 64.2389 23.4306 64.1389 23.9506H63.809L60.389 23.2306C60.689 21.8706 61.429 20.7306 62.609 19.8107C63.809 18.8907 65.3189 18.4307 67.1389 18.4307C69.3389 18.4307 71.0689 19.0507 72.3289 20.2906C73.6089 21.5306 74.2489 23.2806 74.2489 25.5406V34.1505H70.7389V29.7106H72.2089C71.9689 30.5905 71.5289 31.4105 70.8889 32.1705C70.2689 32.9105 69.5089 33.5105 68.6089 33.9705C67.7089 34.4105 66.6989 34.6305 65.5789 34.6305Z" fill="white"/>
</svg>
