<svg width="14" height="14" viewBox="0 0 14 14" fill="none" xmlns="http://www.w3.org/2000/svg">
<g clip-path="url(#clip0_126_686)">
<path d="M1.68008 0.125244C0.777322 0.125244 0.0429688 0.859648 0.0429688 1.76235C0.0429688 2.66506 0.777018 3.39942 1.68008 3.39942C2.58314 3.39942 3.31719 2.66506 3.31719 1.76235C3.31719 0.859648 2.58279 0.125244 1.68008 0.125244Z" fill="white"/>
<path d="M6.97891 0.125244C6.0762 0.125244 5.3418 0.859648 5.3418 1.76235C5.3418 2.66506 6.0762 3.39942 6.97891 3.39942C7.88167 3.39942 8.61617 2.66506 8.61617 1.76235C8.61617 0.859648 7.88197 0.125244 6.97891 0.125244Z" fill="white"/>
<path d="M12.3627 3.39947C13.2653 3.39947 13.9998 2.66511 13.9998 1.76241C13.9998 0.859698 13.2659 0.125244 12.3627 0.125244C11.4595 0.125244 10.7256 0.859648 10.7256 1.76236C10.7256 2.66506 11.4601 3.39947 12.3627 3.39947Z" fill="white"/>
<path d="M1.63741 8.6453C2.54012 8.6453 3.27468 7.91109 3.27468 7.00824C3.27468 6.10532 2.54012 5.37097 1.63741 5.37097C0.734708 5.37097 0 6.10538 0 7.00824C0 7.91109 0.734708 8.6453 1.63741 8.6453Z" fill="white"/>
<path d="M6.93594 8.6453C7.83849 8.6453 8.57305 7.91109 8.57305 7.00824C8.57305 6.10532 7.8391 5.37097 6.93594 5.37097C6.03293 5.37097 5.29883 6.10532 5.29883 7.00824C5.29883 7.91109 6.03323 8.6453 6.93594 8.6453Z" fill="white"/>
<path d="M12.3203 8.6453C13.2232 8.6453 13.9574 7.91109 13.9574 7.00824C13.9574 6.10532 13.2232 5.37097 12.3203 5.37097C11.4174 5.37097 10.6826 6.10532 10.6826 7.00824C10.6826 7.91109 11.4172 8.6453 12.3203 8.6453Z" fill="white"/>
<path d="M1.67501 10.6005C0.772306 10.6005 0.0375977 11.3347 0.0375977 12.2376C0.0375977 13.1401 0.772306 13.8746 1.67501 13.8746C2.57772 13.8746 3.31207 13.1405 3.31207 12.2376C3.31207 11.3347 2.57772 10.6005 1.67501 10.6005Z" fill="white"/>
<path d="M6.97384 10.6005C6.07108 10.6005 5.33643 11.3347 5.33643 12.2376C5.33643 13.1401 6.07083 13.8746 6.97384 13.8746C7.8764 13.8746 8.6109 13.1405 8.6109 12.2376C8.6109 11.3347 7.8764 10.6005 6.97384 10.6005Z" fill="white"/>
<path d="M12.3578 10.6005C11.4553 10.6005 10.7207 11.3347 10.7207 12.2376C10.7207 13.1401 11.4553 13.8746 12.3578 13.8746C13.2607 13.8746 13.9949 13.1405 13.9949 12.2376C13.9949 11.3347 13.2604 10.6005 12.3578 10.6005Z" fill="white"/>
</g>
<defs>
<clipPath id="clip0_126_686">
<rect width="14" height="14" fill="white"/>
</clipPath>
</defs>
</svg>
