<svg width="31" height="31" viewBox="0 0 31 31" fill="none" xmlns="http://www.w3.org/2000/svg">
<path d="M23.31 21.5311C22.9994 21.2644 22.6373 21.0642 22.2462 20.9431C21.8551 20.8219 21.4433 20.7823 21.0363 20.8267C20.6293 20.8711 20.2357 20.9986 19.8799 21.2012C19.5241 21.4039 19.2137 21.6774 18.9679 22.0048L18.889 22.1232C18.7115 22.3653 18.4688 22.5518 18.1891 22.6609C17.9095 22.77 17.6045 22.7971 17.31 22.739C15.1306 22.3691 13.1209 21.3283 11.5614 19.7616C10.0018 18.195 8.97003 16.1806 8.61003 13.9995C8.55197 13.705 8.57906 13.4001 8.68813 13.1204C8.79719 12.8408 8.98371 12.598 9.22582 12.4206L9.34424 12.3416C9.67168 12.0958 9.94518 11.7854 10.1478 11.4296C10.3505 11.0739 10.4779 10.6803 10.5223 10.2733C10.5667 9.86624 10.5271 9.45443 10.406 9.06333C10.2848 8.67223 10.0847 8.31016 9.81792 7.99953L8.61003 6.62584C8.29806 6.26099 7.90529 5.97393 7.46295 5.78746C7.0206 5.60099 6.54086 5.52026 6.06184 5.55169C5.58283 5.58311 5.11774 5.72582 4.70354 5.96848C4.28935 6.21113 3.93745 6.54705 3.67582 6.94953L2.30213 9.06532C1.61349 10.3135 1.39502 11.7672 1.68634 13.1627C2.54047 17.2167 4.55498 20.9349 7.48455 23.8645C10.4141 26.794 14.1323 28.8086 18.1863 29.6627C18.5833 29.7476 18.9883 29.79 19.3942 29.789C20.4222 29.7821 21.431 29.5102 22.3232 28.9995L24.3995 27.6574C24.802 27.3958 25.1379 27.0439 25.3806 26.6297C25.6232 26.2155 25.7659 25.7504 25.7973 25.2714C25.8288 24.7924 25.748 24.3126 25.5616 23.8703C25.3751 23.4279 25.088 23.0352 24.7232 22.7232L23.31 21.5311Z" fill="black"/>
<path d="M21.6915 1.36795C20.2724 1.36628 18.8766 1.72931 17.6382 2.42222C16.3997 3.11512 15.3601 4.11465 14.619 5.32492C13.878 6.53519 13.4603 7.91558 13.4062 9.33368C13.3521 10.7518 13.6633 12.16 14.3099 13.4232L13.402 16.968C13.3686 17.1 13.37 17.2385 13.4059 17.37C13.4419 17.5014 13.5113 17.6213 13.6073 17.7179C13.6839 17.794 13.7752 17.8536 13.8757 17.893C13.9762 17.9323 14.0837 17.9507 14.1915 17.9469C14.2544 17.9545 14.3181 17.9545 14.381 17.9469L17.9257 17.0627C19.0421 17.6242 20.271 17.9261 21.5205 17.9458C22.77 17.9654 24.0077 17.7023 25.1412 17.1761C26.2747 16.6499 27.2745 15.8743 28.0659 14.9072C28.8574 13.9401 29.4199 12.8066 29.7115 11.5914C30.003 10.3762 30.0161 9.11088 29.7496 7.88997C29.4832 6.66905 28.9442 5.52416 28.1729 4.54094C27.4016 3.55772 26.418 2.76161 25.2956 2.21215C24.1732 1.66269 22.9411 1.37409 21.6915 1.36795ZM22.0863 14.789C21.9301 14.789 21.7775 14.7427 21.6476 14.656C21.5178 14.5692 21.4166 14.4459 21.3569 14.3016C21.2971 14.1574 21.2815 13.9987 21.3119 13.8455C21.3424 13.6924 21.4176 13.5517 21.528 13.4413C21.6384 13.3309 21.7791 13.2557 21.9322 13.2252C22.0854 13.1948 22.2441 13.2104 22.3884 13.2702C22.5326 13.3299 22.6559 13.4311 22.7427 13.5609C22.8294 13.6907 22.8757 13.8434 22.8757 13.9995C22.8757 14.2089 22.7925 14.4097 22.6445 14.5578C22.4964 14.7058 22.2956 14.789 22.0863 14.789ZM23.3889 9.87058C23.2253 10.0311 23.0956 10.2228 23.0075 10.4344C22.9193 10.6459 22.8745 10.873 22.8757 11.1022V11.6311C22.8757 11.8405 22.7925 12.0413 22.6445 12.1894C22.4964 12.3374 22.2956 12.4206 22.0863 12.4206C21.8769 12.4206 21.6761 12.3374 21.528 12.1894C21.38 12.0413 21.2968 11.8405 21.2968 11.6311V11.1022C21.2941 10.6628 21.3785 10.2273 21.5452 9.82072C21.7118 9.41419 21.9575 9.04474 22.2678 8.73374C22.4599 8.54527 22.6126 8.32048 22.7169 8.07244C22.8213 7.82441 22.8753 7.5581 22.8757 7.289C22.8757 6.97493 22.751 6.67372 22.5289 6.45164C22.3068 6.22956 22.0056 6.10479 21.6915 6.10479C21.3774 6.10479 21.0762 6.22956 20.8542 6.45164C20.6321 6.67372 20.5073 6.97493 20.5073 7.289V7.68374C20.5073 7.89312 20.4241 8.09393 20.2761 8.24198C20.128 8.39004 19.9272 8.47321 19.7178 8.47321C19.5084 8.47321 19.3076 8.39004 19.1596 8.24198C19.0115 8.09393 18.9284 7.89312 18.9284 7.68374V7.289C18.9284 6.55617 19.2195 5.85335 19.7377 5.33515C20.2559 4.81696 20.9587 4.52584 21.6915 4.52584C22.4243 4.52584 23.1272 4.81696 23.6454 5.33515C24.1636 5.85335 24.4547 6.55617 24.4547 7.289C24.4553 7.76823 24.3615 8.24289 24.1787 8.68585C23.9958 9.12881 23.7274 9.53139 23.3889 9.87058Z" fill="black"/>
</svg>
