<svg width="60" height="60" viewBox="0 0 60 60" fill="none" xmlns="http://www.w3.org/2000/svg">
<path d="M19.2859 55.7143C28.7537 55.7143 36.4288 48.0392 36.4288 38.5714C36.4288 29.1037 28.7537 21.4286 19.2859 21.4286C9.81818 21.4286 2.14307 29.1037 2.14307 38.5714C2.14307 48.0392 9.81818 55.7143 19.2859 55.7143Z" stroke="#BFF747" stroke-width="1.5" stroke-linecap="round" stroke-linejoin="round"/>
<path d="M40.7146 55.7143C50.1824 55.7143 57.8575 48.0392 57.8575 38.5714C57.8575 29.1037 50.1824 21.4286 40.7146 21.4286C31.2469 21.4286 23.5718 29.1037 23.5718 38.5714C23.5718 48.0392 31.2469 55.7143 40.7146 55.7143Z" stroke="#BFF747" stroke-width="1.5" stroke-linecap="round" stroke-linejoin="round"/>
<path d="M30.0003 38.5714C39.468 38.5714 47.1431 30.8963 47.1431 21.4286C47.1431 11.9608 39.468 4.28571 30.0003 4.28571C20.5325 4.28571 12.8574 11.9608 12.8574 21.4286C12.8574 30.8963 20.5325 38.5714 30.0003 38.5714Z" stroke="#BFF747" stroke-width="1.5" stroke-linecap="round" stroke-linejoin="round"/>
</svg>
