<svg width="60" height="61" viewBox="0 0 60 61" fill="none" xmlns="http://www.w3.org/2000/svg">
<path d="M6.42878 26.3467H10.7145C11.2828 26.3467 11.8279 26.5724 12.2297 26.9743C12.6316 27.3762 12.8574 27.9212 12.8574 28.4895V39.2038C12.8574 39.7721 12.6316 40.3172 12.2297 40.7191C11.8279 41.1209 11.2828 41.3467 10.7145 41.3467H6.42878C5.29214 41.3467 4.20205 40.8951 3.39832 40.0914C2.5946 39.2877 2.14307 38.1976 2.14307 37.061V30.6324C2.14307 29.4958 2.5946 28.4057 3.39832 27.6019C4.20205 26.7982 5.29214 26.3467 6.42878 26.3467V26.3467Z" stroke="#BFF747" stroke-width="2" stroke-linecap="round" stroke-linejoin="round"/>
<path d="M53.5717 41.3467H49.286C48.7177 41.3467 48.1726 41.1209 47.7708 40.7191C47.3689 40.3172 47.1431 39.7721 47.1431 39.2038V28.4895C47.1431 27.9212 47.3689 27.3762 47.7708 26.9743C48.1726 26.5724 48.7177 26.3467 49.286 26.3467H53.5717C54.7083 26.3467 55.7984 26.7982 56.6022 27.6019C57.4059 28.4057 57.8574 29.4958 57.8574 30.6324V37.061C57.8574 38.1976 57.4059 39.2877 56.6022 40.0914C55.7984 40.8951 54.7083 41.3467 53.5717 41.3467V41.3467Z" stroke="#BFF747" stroke-width="2" stroke-linecap="round" stroke-linejoin="round"/>
<path d="M40.7144 53.1324C42.9876 53.1324 45.1678 52.2293 46.7753 50.6219C48.3827 49.0144 49.2858 46.8342 49.2858 44.561V41.3467" stroke="#BFF747" stroke-width="2" stroke-linecap="round" stroke-linejoin="round"/>
<path d="M35.3575 47.7754C36.7783 47.7754 38.1409 48.3398 39.1456 49.3445C40.1502 50.3491 40.7146 51.7117 40.7146 53.1325C40.7146 54.5533 40.1502 55.9159 39.1456 56.9206C38.1409 57.9253 36.7783 58.4897 35.3575 58.4897H28.9289C27.5081 58.4897 26.1455 57.9253 25.1408 56.9206C24.1362 55.9159 23.5718 54.5533 23.5718 53.1325C23.5718 51.7117 24.1362 50.3491 25.1408 49.3445C26.1455 48.3398 27.5081 47.7754 28.9289 47.7754H35.3575Z" stroke="#BFF747" stroke-width="2" stroke-linecap="round" stroke-linejoin="round"/>
<path d="M10.7144 26.3468V22.0611C10.7144 16.9462 12.7462 12.0408 16.363 8.42404C19.9798 4.80727 24.8852 2.77539 30.0001 2.77539C35.115 2.77539 40.0204 4.80727 43.6371 8.42404C47.2539 12.0408 49.2858 16.9462 49.2858 22.0611V26.3468" stroke="#BFF747" stroke-width="2" stroke-linecap="round" stroke-linejoin="round"/>
<path d="M23.5718 17.7754V24.204" stroke="#BFF747" stroke-width="2" stroke-linecap="round" stroke-linejoin="round"/>
<path d="M36.4287 17.7754V24.204" stroke="#BFF747" stroke-width="2" stroke-linecap="round" stroke-linejoin="round"/>
<path d="M23.5718 32.7754C23.5718 38.4754 36.4289 38.4754 36.4289 32.7754" stroke="#BFF747" stroke-width="2" stroke-linecap="round" stroke-linejoin="round"/>
</svg>
