<svg width="60" height="61" viewBox="0 0 60 61" fill="none" xmlns="http://www.w3.org/2000/svg">
<path d="M22.4143 10.2754L24.2571 5.51825C24.5679 4.71281 25.1147 4.02001 25.8259 3.53059C26.5371 3.04116 27.3795 2.77794 28.2428 2.77539H31.7571C32.6204 2.77794 33.4629 3.04116 34.174 3.53059C34.8852 4.02001 35.432 4.71281 35.7428 5.51825L37.5857 10.2754L43.8428 13.8754L48.9 13.104C49.742 12.9897 50.5991 13.1283 51.3622 13.5022C52.1253 13.8761 52.76 14.4685 53.1857 15.204L54.9 18.204C55.3393 18.9512 55.5416 19.814 55.4804 20.6786C55.4192 21.5432 55.0973 22.369 54.5571 23.0468L51.4285 27.0325V34.2325L54.6428 38.2182C55.183 38.8961 55.5049 39.7218 55.5661 40.5864C55.6274 41.451 55.425 42.3139 54.9857 43.0611L53.2714 46.0611C52.8457 46.7966 52.211 47.3889 51.4479 47.7629C50.6848 48.1368 49.8278 48.2754 48.9857 48.1611L43.9285 47.3897L37.6714 50.9897L35.8285 55.7468C35.5178 56.5523 34.971 57.2451 34.2598 57.7345C33.5486 58.2239 32.7061 58.4871 31.8428 58.4897H28.2428C27.3795 58.4871 26.5371 58.2239 25.8259 57.7345C25.1147 57.2451 24.5679 56.5523 24.2571 55.7468L22.4143 50.9897L16.1571 47.3897L11.1 48.1611C10.2579 48.2754 9.40086 48.1368 8.63775 47.7629C7.87465 47.3889 7.23993 46.7966 6.81426 46.0611L5.09997 43.0611C4.66069 42.3139 4.4583 41.451 4.51951 40.5864C4.58072 39.7218 4.90266 38.8961 5.44283 38.2182L8.5714 34.2325V27.0325L5.35711 23.0468C4.81694 22.369 4.49501 21.5432 4.4338 20.6786C4.37259 19.814 4.57498 18.9512 5.01426 18.204L6.72854 15.204C7.15421 14.4685 7.78893 13.8761 8.55204 13.5022C9.31514 13.1283 10.1722 12.9897 11.0143 13.104L16.0714 13.8754L22.4143 10.2754Z" stroke="#BFF747" stroke-width="2" stroke-linecap="round" stroke-linejoin="round"/>
<path d="M30 43.4897C37.1008 43.4897 42.8571 37.7333 42.8571 30.6325C42.8571 23.5317 37.1008 17.7754 30 17.7754C22.8992 17.7754 17.1428 23.5317 17.1428 30.6325C17.1428 37.7333 22.8992 43.4897 30 43.4897Z" stroke="#BFF747" stroke-width="2" stroke-linecap="round" stroke-linejoin="round"/>
<path d="M30 17.7754V30.6325H42.8571" stroke="#BFF747" stroke-width="2" stroke-linecap="round" stroke-linejoin="round"/>
<path d="M30.0005 30.6328L20.9148 39.7185" stroke="#BFF747" stroke-width="2" stroke-linecap="round" stroke-linejoin="round"/>
</svg>
