<svg width="41" height="41" viewBox="0 0 41 41" fill="none" xmlns="http://www.w3.org/2000/svg">
<g clip-path="url(#clip0_394_4)">
<path d="M14.6385 14.9867C18.1889 14.9867 21.0671 12.1085 21.0671 8.55809C21.0671 5.00769 18.1889 2.12952 14.6385 2.12952C11.0881 2.12952 8.20996 5.00769 8.20996 8.55809C8.20996 12.1085 11.0881 14.9867 14.6385 14.9867Z" stroke="#BFF747" stroke-width="1.5" stroke-linecap="round" stroke-linejoin="round"/>
<path d="M13.2098 36.4153H1.78125V32.1296C1.80399 29.9518 2.37833 27.8154 3.4506 25.9198C4.52288 24.0242 6.05811 22.4313 7.91289 21.2899C9.76768 20.1485 11.8815 19.4958 14.0569 19.3928C16.2323 19.2898 18.3984 19.7399 20.3527 20.701" stroke="#BFF747" stroke-width="1.5" stroke-linecap="round" stroke-linejoin="round"/>
<path d="M30.3525 22.1295V39.2724" stroke="#BFF747" stroke-width="1.5" stroke-linecap="round" stroke-linejoin="round"/>
<path d="M21.7812 30.7009H38.9241" stroke="#BFF747" stroke-width="1.5" stroke-linecap="round" stroke-linejoin="round"/>
</g>
<defs>
<clipPath id="clip0_394_4">
<rect width="40" height="40" fill="white" transform="translate(0.352539 0.700928)"/>
</clipPath>
</defs>
</svg>
