<svg width="61" height="61" viewBox="0 0 61 61" fill="none" xmlns="http://www.w3.org/2000/svg">
<path d="M14.7567 26.484C21.2657 26.484 26.5424 21.2074 26.5424 14.6983C26.5424 8.18924 21.2657 2.9126 14.7567 2.9126C8.24759 2.9126 2.97095 8.18924 2.97095 14.6983C2.97095 21.2074 8.24759 26.484 14.7567 26.484Z" stroke="black" stroke-width="2" stroke-linecap="round" stroke-linejoin="round"/>
<path d="M46.8995 26.484C53.4086 26.484 58.6852 21.2074 58.6852 14.6983C58.6852 8.18924 53.4086 2.9126 46.8995 2.9126C40.3904 2.9126 35.1138 8.18924 35.1138 14.6983C35.1138 21.2074 40.3904 26.484 46.8995 26.484Z" stroke="black" stroke-width="2" stroke-linecap="round" stroke-linejoin="round"/>
<path d="M14.7567 58.6271C21.2657 58.6271 26.5424 53.3504 26.5424 46.8414C26.5424 40.3323 21.2657 35.0557 14.7567 35.0557C8.24759 35.0557 2.97095 40.3323 2.97095 46.8414C2.97095 53.3504 8.24759 58.6271 14.7567 58.6271Z" stroke="black" stroke-width="2" stroke-linecap="round" stroke-linejoin="round"/>
<path d="M46.8995 58.6271C53.4086 58.6271 58.6852 53.3504 58.6852 46.8414C58.6852 40.3323 53.4086 35.0557 46.8995 35.0557C40.3904 35.0557 35.1138 40.3323 35.1138 46.8414C35.1138 53.3504 40.3904 58.6271 46.8995 58.6271Z" stroke="black" stroke-width="2" stroke-linecap="round" stroke-linejoin="round"/>
</svg>
