<svg width="61" height="61" viewBox="0 0 61 61" fill="none" xmlns="http://www.w3.org/2000/svg">
<path d="M32.8427 30.3408C32.2071 30.6169 31.5215 30.7593 30.8284 30.7593C30.1354 30.7593 29.4498 30.6169 28.8142 30.3408L4.38559 19.0265C3.98891 18.8265 3.65555 18.5202 3.42264 18.1419C3.18973 17.7635 3.06641 17.328 3.06641 16.8837C3.06641 16.4394 3.18973 16.0038 3.42264 15.6255C3.65555 15.2472 3.98891 14.9409 4.38559 14.7408L28.8142 3.34083C29.4498 3.0648 30.1354 2.92236 30.8284 2.92236C31.5215 2.92236 32.2071 3.0648 32.8427 3.34083L57.2713 14.6551C57.668 14.8552 58.0013 15.1614 58.2343 15.5398C58.4672 15.9181 58.5905 16.3537 58.5905 16.798C58.5905 17.2423 58.4672 17.6778 58.2343 18.0562C58.0013 18.4345 57.668 18.7407 57.2713 18.9408L32.8427 30.3408Z" stroke="black" stroke-width="2" stroke-linecap="round" stroke-linejoin="round"/>
<path d="M58.6855 32.2695L32.5426 44.3124C31.9843 44.5671 31.3777 44.6989 30.764 44.6989C30.1504 44.6989 29.5438 44.5671 28.9855 44.3124L2.97119 32.2695" stroke="black" stroke-width="2" stroke-linecap="round" stroke-linejoin="round"/>
<path d="M58.6855 46.1978L32.5426 58.2406C31.9843 58.4953 31.3777 58.6271 30.764 58.6271C30.1504 58.6271 29.5438 58.4953 28.9855 58.2406L2.97119 46.1978" stroke="black" stroke-width="2" stroke-linecap="round" stroke-linejoin="round"/>
</svg>
