<svg width="60" height="60" viewBox="0 0 60 60" fill="none" xmlns="http://www.w3.org/2000/svg">
<path d="M45.5999 6.59998H14.3999C13.6806 6.61973 12.9761 6.80847 12.3432 7.15095C11.7104 7.49343 11.167 7.98003 10.7571 8.5714L2.95709 19.3714C2.3779 20.1899 2.08865 21.1783 2.13523 22.1799C2.18182 23.1815 2.56157 24.1388 3.21423 24.9L26.6142 51.8571C27.0148 52.3733 27.5282 52.7911 28.115 53.0784C28.7018 53.3658 29.3465 53.5152 29.9999 53.5152C30.6533 53.5152 31.2981 53.3658 31.8849 53.0784C32.4717 52.7911 32.9851 52.3733 33.3857 51.8571L56.7857 24.9C57.4383 24.1388 57.8181 23.1815 57.8646 22.1799C57.9112 21.1783 57.622 20.1899 57.0428 19.3714L49.2428 8.5714C48.8328 7.98003 48.2895 7.49343 47.6566 7.15095C47.0238 6.80847 46.3192 6.61973 45.5999 6.59998V6.59998Z" stroke="#BFF747" stroke-width="1.5" stroke-linecap="round" stroke-linejoin="round"/>
<path d="M27.7714 6.55713L17.3142 22.7571L29.9999 53.4" stroke="#BFF747" stroke-width="1.5" stroke-linecap="round" stroke-linejoin="round"/>
<path d="M32.3571 6.55713L42.7714 22.7571L30 53.4" stroke="#BFF747" stroke-width="1.5" stroke-linecap="round" stroke-linejoin="round"/>
<path d="M2.22852 22.7571H57.7714" stroke="#BFF747" stroke-width="1.5" stroke-linecap="round" stroke-linejoin="round"/>
</svg>
