<svg width="60" height="61" viewBox="0 0 60 61" fill="none" xmlns="http://www.w3.org/2000/svg">
<path d="M40.7144 7.06152H47.143C48.2796 7.06152 49.3697 7.51305 50.1734 8.31678C50.9771 9.12051 51.4287 10.2106 51.4287 11.3472V54.2044C51.4287 55.341 50.9771 56.4311 50.1734 57.2348C49.3697 58.0386 48.2796 58.4901 47.143 58.4901H12.8572C11.7206 58.4901 10.6305 58.0386 9.82679 57.2348C9.02306 56.4311 8.57153 55.341 8.57153 54.2044V11.3472C8.57153 10.2106 9.02306 9.12051 9.82679 8.31678C10.6305 7.51305 11.7206 7.06152 12.8572 7.06152H19.2858" stroke="#BFF747" stroke-width="2" stroke-linecap="round" stroke-linejoin="round"/>
<path d="M36.4287 2.77539H23.5716C21.2047 2.77539 19.2859 4.69417 19.2859 7.0611V9.20396C19.2859 11.5709 21.2047 13.4897 23.5716 13.4897H36.4287C38.7957 13.4897 40.7145 11.5709 40.7145 9.20396V7.0611C40.7145 4.69417 38.7957 2.77539 36.4287 2.77539Z" stroke="#BFF747" stroke-width="2" stroke-linecap="round" stroke-linejoin="round"/>
<path d="M19.2859 24.2041H40.7145" stroke="#BFF747" stroke-width="2" stroke-linecap="round" stroke-linejoin="round"/>
<path d="M19.2859 34.918H40.7145" stroke="#BFF747" stroke-width="2" stroke-linecap="round" stroke-linejoin="round"/>
<path d="M19.2859 45.6328H40.7145" stroke="#BFF747" stroke-width="2" stroke-linecap="round" stroke-linejoin="round"/>
</svg>
