<svg width="123" height="30" viewBox="0 0 123 30" fill="none" xmlns="http://www.w3.org/2000/svg">
<path d="M36.1267 19.4865H44.895V16.8455H39.2432V6.89746H36.1267V19.4865Z" fill="white"/>
<path d="M50.0899 17.7267C48.8398 17.7267 48.1884 16.635 48.1884 14.9976C48.1884 13.3601 48.8398 12.2509 50.0899 12.2509C51.34 12.2509 52.0091 13.3601 52.0091 14.9976C52.0091 16.635 51.34 17.7267 50.0899 17.7267ZM50.1075 19.7691C53.0127 19.7691 54.9143 17.7091 54.9143 14.9976C54.9143 12.2861 53.0127 10.2261 50.1075 10.2261C47.22 10.2261 45.2832 12.2861 45.2832 14.9976C45.2832 17.7091 47.22 19.7691 50.1075 19.7691Z" fill="white"/>
<path d="M59.9431 22.6029C61.2812 22.6029 62.4609 22.3036 63.2532 21.5993C63.9751 20.9478 64.4505 19.9618 64.4505 18.6061V10.4716H61.7038V11.44H61.6686C61.1404 10.6829 60.3305 10.2075 59.1332 10.2075C56.8971 10.2075 55.3477 12.0739 55.3477 14.7149C55.3477 17.4792 57.2316 18.9934 59.2564 18.9934C60.3481 18.9934 61.0347 18.5533 61.563 17.9546H61.6334V18.8526C61.6334 19.9442 61.1228 20.5781 59.9079 20.5781C58.9571 20.5781 58.4817 20.1731 58.3233 19.6977H55.5413C55.823 21.5817 57.4605 22.6029 59.9431 22.6029ZM59.9255 16.863C58.8515 16.863 58.1472 15.9826 58.1472 14.6269C58.1472 13.2535 58.8515 12.3732 59.9255 12.3732C61.1228 12.3732 61.7566 13.3944 61.7566 14.6093C61.7566 15.877 61.1756 16.863 59.9255 16.863Z" fill="white"/>
<path d="M70.0977 17.7267C68.8476 17.7267 68.1962 16.635 68.1962 14.9976C68.1962 13.3601 68.8476 12.2509 70.0977 12.2509C71.3478 12.2509 72.0169 13.3601 72.0169 14.9976C72.0169 16.635 71.3478 17.7267 70.0977 17.7267ZM70.1153 19.7691C73.0205 19.7691 74.9217 17.7091 74.9217 14.9976C74.9217 12.2861 73.0205 10.2261 70.1153 10.2261C67.2278 10.2261 65.291 12.2861 65.291 14.9976C65.291 17.7091 67.2278 19.7691 70.1153 19.7691Z" fill="white"/>
<path d="M75.7603 19.4865H78.6302V10.4717H75.7603V19.4865ZM75.7603 9.22159H78.6302V6.89746H75.7603V9.22159Z" fill="white"/>
<path d="M79.8755 22.462H82.7454V18.5533H82.7807C83.3441 19.3104 84.1716 19.7682 85.3337 19.7682C87.693 19.7682 89.2601 17.9018 89.2601 14.979C89.2601 12.2675 87.7987 10.2075 85.4041 10.2075C84.1716 10.2075 83.2913 10.7533 82.675 11.5633H82.6222V10.4716H79.8755V22.462ZM84.5942 17.5497C83.3617 17.5497 82.6574 16.5461 82.6574 15.0847C82.6574 13.6233 83.2913 12.514 84.5414 12.514C85.7739 12.514 86.3549 13.5353 86.3549 15.0847C86.3549 16.6165 85.6858 17.5497 84.5942 17.5497Z" fill="white"/>
<path d="M93.9323 19.7682C96.2916 19.7682 98.0347 18.7469 98.0347 16.775C98.0347 14.4684 96.1684 14.0635 94.5837 13.7994C93.4393 13.5881 92.418 13.5 92.418 12.8662C92.418 12.3028 92.9639 12.0387 93.6681 12.0387C94.4605 12.0387 95.0063 12.2852 95.1119 13.0951H97.753C97.6121 11.3168 96.2388 10.2075 93.6858 10.2075C91.5553 10.2075 89.7946 11.1935 89.7946 13.0951C89.7946 15.2079 91.4673 15.6305 93.0343 15.8946C94.2316 16.1059 95.3232 16.1939 95.3232 17.0038C95.3232 17.5849 94.7774 17.9018 93.9147 17.9018C92.9639 17.9018 92.3652 17.4616 92.2596 16.5637H89.5481C89.6361 18.5533 91.2912 19.7682 93.9323 19.7682Z" fill="white"/>
<path d="M101.934 19.7511C103.184 19.7511 103.976 19.2581 104.628 18.3777H104.68V19.487H107.427V10.4722H104.557V15.5078C104.557 16.5818 103.958 17.3213 102.972 17.3213C102.057 17.3213 101.617 16.7755 101.617 15.7895V10.4722H98.7644V16.3881C98.7644 18.3953 99.856 19.7511 101.934 19.7511Z" fill="white"/>
<path d="M108.676 19.4864H111.545V14.4332C111.545 13.3592 112.074 12.6021 112.972 12.6021C113.834 12.6021 114.239 13.1655 114.239 14.1339V19.4864H117.109V14.4332C117.109 13.3592 117.62 12.6021 118.535 12.6021C119.398 12.6021 119.803 13.1655 119.803 14.1339V19.4864H122.673V13.6233C122.673 11.5985 121.652 10.2075 119.61 10.2075C118.447 10.2075 117.479 10.7005 116.775 11.7922H116.74C116.282 10.8238 115.384 10.2075 114.204 10.2075C112.901 10.2075 112.038 10.8238 111.475 11.7569H111.422V10.4716H108.676V19.4864Z" fill="white"/>
<path fill-rule="evenodd" clip-rule="evenodd" d="M6.65239 2.89703C5.61516 3.62229 4.67723 4.47978 3.86302 5.44506C7.19026 5.13616 11.4174 5.64056 16.3251 8.09442C21.5658 10.7147 25.7859 10.8033 28.7229 10.2368C28.4564 9.42994 28.1208 8.65448 27.7235 7.9173C24.3614 8.2719 20.0513 7.80253 15.0282 5.29106C11.8385 3.6962 9.02679 3.03923 6.65239 2.89703ZM25.7595 5.1219C23.1045 2.15545 19.2461 0.288574 14.9516 0.288574C13.6905 0.288574 12.4668 0.449602 11.3003 0.752198C12.8802 1.18329 14.5586 1.81396 16.3251 2.69722C20.0027 4.53601 23.1778 5.12807 25.7595 5.1219ZM29.3508 13.0689C25.8027 13.7696 20.903 13.6257 15.0282 10.6883C9.53589 7.9421 5.16448 7.97668 2.21624 8.63186C2.06406 8.66565 1.91547 8.70117 1.77046 8.73815C1.38446 9.57763 1.07635 10.4604 0.855269 11.3771C1.09139 11.314 1.33539 11.254 1.58713 11.1981C5.16385 10.4033 10.2175 10.4378 16.3251 13.4916C21.8175 16.2378 26.1889 16.2032 29.1371 15.548C29.2381 15.5256 29.3377 15.5024 29.4356 15.4785C29.4463 15.2499 29.4517 15.0198 29.4517 14.7886C29.4517 14.2068 29.4174 13.6329 29.3508 13.0689ZM28.9621 18.5385C25.4484 19.1528 20.6915 18.917 15.0282 16.0854C9.53589 13.3393 5.16448 13.3739 2.21624 14.0291C1.56182 14.1744 0.973109 14.3515 0.453784 14.5385C0.452368 14.6217 0.45166 14.705 0.45166 14.7886C0.45166 22.7967 6.94353 29.2886 14.9516 29.2886C21.663 29.2886 27.3095 24.729 28.9621 18.5385Z" fill="#BFF747"/>
</svg>
