<svg width="51" height="51" viewBox="0 0 51 51" fill="none" xmlns="http://www.w3.org/2000/svg">
<path d="M41.9192 18.5952C41.9192 27.488 25.8478 48.9523 25.8478 48.9523C25.8478 48.9523 9.77637 27.488 9.77637 18.5952C9.77637 14.3328 11.4696 10.2449 14.4836 7.23095C17.4976 4.21698 21.5854 2.52374 25.8478 2.52374C30.1102 2.52374 34.198 4.21698 37.212 7.23095C40.226 10.2449 41.9192 14.3328 41.9192 18.5952V18.5952Z" stroke="#BFF747" stroke-width="1.5" stroke-linecap="round" stroke-linejoin="round"/>
<path d="M25.8474 23.9523C28.806 23.9523 31.2045 21.5538 31.2045 18.5952C31.2045 15.6365 28.806 13.238 25.8474 13.238C22.8887 13.238 20.4902 15.6365 20.4902 18.5952C20.4902 21.5538 22.8887 23.9523 25.8474 23.9523Z" stroke="#BFF747" stroke-width="1.5" stroke-linecap="round" stroke-linejoin="round"/>
</svg>
