<svg width="41" height="41" viewBox="0 0 41 41" fill="none" xmlns="http://www.w3.org/2000/svg">
<path d="M9.98145 17.4152L17.2386 5.81517C17.5198 5.35668 17.915 4.97885 18.3857 4.71848C18.8564 4.45811 19.3864 4.32409 19.9243 4.32946V4.32946C20.3479 4.31417 20.7703 4.38395 21.1664 4.53468C21.5626 4.6854 21.9246 4.91402 22.2309 5.20701C22.5372 5.50001 22.7816 5.85143 22.9498 6.24052C23.118 6.6296 23.2065 7.04845 23.21 7.47231V15.7866H35.7529C36.2163 15.8016 36.6714 15.9146 37.0881 16.1181C37.5048 16.3215 37.8737 16.6109 38.1705 16.9671C38.4674 17.3234 38.6855 17.7384 38.8105 18.1849C38.9355 18.6315 38.9645 19.0994 38.8957 19.558L36.61 34.3009C36.5125 35.0888 36.1306 35.8139 35.5361 36.3401C34.9416 36.8662 34.1753 37.1571 33.3814 37.158H14.6386C13.7464 37.1615 12.8657 36.956 12.0672 36.558L10.01 35.5295" stroke="#BFF747" stroke-width="1.5" stroke-linecap="round" stroke-linejoin="round"/>
<path d="M9.98145 17.4152V35.4437" stroke="#BFF747" stroke-width="1.5" stroke-linecap="round" stroke-linejoin="round"/>
<path d="M3.20982 17.4152H9.98125V35.4437H3.20982C2.83094 35.4437 2.46758 35.2932 2.19967 35.0253C1.93176 34.7574 1.78125 34.394 1.78125 34.0152V18.8437C1.78125 18.4649 1.93176 18.1015 2.19967 17.8336C2.46758 17.5657 2.83094 17.4152 3.20982 17.4152V17.4152Z" stroke="#BFF747" stroke-width="1.5" stroke-linecap="round" stroke-linejoin="round"/>
</svg>
