<svg width="61" height="60" viewBox="0 0 61 60" fill="none" xmlns="http://www.w3.org/2000/svg">
<path d="M36.981 21.4286C39.348 21.4286 41.2667 19.5098 41.2667 17.1429C41.2667 14.7759 39.348 12.8571 36.981 12.8571C34.6141 12.8571 32.6953 14.7759 32.6953 17.1429C32.6953 19.5098 34.6141 21.4286 36.981 21.4286Z" stroke="#BFF747" stroke-width="1.5" stroke-linecap="round" stroke-linejoin="round"/>
<path d="M19.8382 42.8572C21.0216 42.8572 21.981 41.8978 21.981 40.7143C21.981 39.5308 21.0216 38.5714 19.8382 38.5714C18.6547 38.5714 17.6953 39.5308 17.6953 40.7143C17.6953 41.8978 18.6547 42.8572 19.8382 42.8572Z" stroke="#BFF747" stroke-width="1.5" stroke-linecap="round" stroke-linejoin="round"/>
<path d="M19.8375 27.8571C22.2044 27.8571 24.1232 25.9384 24.1232 23.5714C24.1232 21.2045 22.2044 19.2857 19.8375 19.2857C17.4705 19.2857 15.5518 21.2045 15.5518 23.5714C15.5518 25.9384 17.4705 27.8571 19.8375 27.8571Z" stroke="#BFF747" stroke-width="1.5" stroke-linecap="round" stroke-linejoin="round"/>
<path d="M41.3521 52.6286C41.3044 51.7973 41.0155 50.9979 40.5208 50.3281C40.0261 49.6584 39.3469 49.1472 38.5664 48.8571C36.628 48.22 34.9805 46.9124 33.92 45.1692C32.8595 43.426 32.4556 41.3617 32.781 39.3474C33.1064 37.3331 34.1397 35.5009 35.6951 34.1803C37.2505 32.8597 39.226 32.1372 41.2664 32.1429H49.2807C50.6553 32.1467 52.0106 31.8199 53.2323 31.19C54.4541 30.5601 55.5064 29.6456 56.3006 28.5237C57.0948 27.4018 57.6075 26.1053 57.7955 24.7437C57.9835 23.382 57.8412 21.9951 57.3807 20.7C55.6761 15.887 52.6815 11.6351 48.7241 8.40877C44.7666 5.18246 39.9985 3.10587 34.9408 2.40589C29.8831 1.7059 24.7303 2.40945 20.0453 4.43966C15.3603 6.46987 11.3235 9.74864 8.37578 13.9178C5.42806 18.0869 3.68289 22.9859 3.33092 28.0797C2.97896 33.1735 4.03374 38.2661 6.38003 42.801C8.72632 47.3359 12.2739 51.1387 16.6351 53.794C20.9963 56.4493 26.0034 57.8549 31.1093 57.8571C33.6308 57.8642 36.1409 57.518 38.5664 56.8286C39.4573 56.579 40.2287 56.0175 40.7401 55.2465C41.2515 54.4755 41.4687 53.5464 41.3521 52.6286V52.6286Z" stroke="#BFF747" stroke-width="1.5" stroke-linecap="round" stroke-linejoin="round"/>
</svg>
