<svg width="41" height="41" viewBox="0 0 41 41" fill="none" xmlns="http://www.w3.org/2000/svg">
<g clip-path="url(#clip0_394_17)">
<path d="M14.6385 17.8438C18.1889 17.8438 21.0671 14.9657 21.0671 11.4153C21.0671 7.86486 18.1889 4.98669 14.6385 4.98669C11.0881 4.98669 8.20996 7.86486 8.20996 11.4153C8.20996 14.9657 11.0881 17.8438 14.6385 17.8438Z" stroke="#BFF747" stroke-width="1.5" stroke-linecap="round" stroke-linejoin="round"/>
<path d="M27.4955 39.2724H1.78125V36.4152C1.78125 33.0053 3.13584 29.7351 5.54702 27.3239C7.9582 24.9127 11.2285 23.5581 14.6384 23.5581C18.0483 23.5581 21.3186 24.9127 23.7298 27.3239C26.1409 29.7351 27.4955 33.0053 27.4955 36.4152V39.2724Z" stroke="#BFF747" stroke-width="1.5" stroke-linecap="round" stroke-linejoin="round"/>
<path d="M26.0669 4.98669C27.7719 4.98669 29.407 5.66399 30.6126 6.86958C31.8182 8.07517 32.4955 9.7103 32.4955 11.4153C32.4955 13.1202 31.8182 14.7554 30.6126 15.961C29.407 17.1665 27.7719 17.8438 26.0669 17.8438" stroke="#BFF747" stroke-width="1.5" stroke-linecap="round" stroke-linejoin="round"/>
<path d="M30.6382 24.101C33.072 25.0268 35.1673 26.6698 36.6469 28.8126C38.1264 30.9554 38.9205 33.497 38.9239 36.101V39.2724H34.6382" stroke="#BFF747" stroke-width="1.5" stroke-linecap="round" stroke-linejoin="round"/>
</g>
<defs>
<clipPath id="clip0_394_17">
<rect width="40" height="40" fill="white" transform="translate(0.352539 0.700928)"/>
</clipPath>
</defs>
</svg>
