<svg width="41" height="41" viewBox="0 0 41 41" fill="none" xmlns="http://www.w3.org/2000/svg">
<g clip-path="url(#clip0_133_1406)">
<path d="M20.5 29.5278V32.4135" stroke="#000001" stroke-linecap="round" stroke-linejoin="round"/>
<path d="M20.5 15.2134V17.8991" stroke="#000001" stroke-linecap="round" stroke-linejoin="round"/>
<path d="M20.5 39.4422C30.5 39.4422 37.6429 35.8993 37.6429 28.0136C37.6429 19.4422 33.3572 13.7279 24.7857 9.44219L28.1572 5.09933C28.3285 4.81439 28.4214 4.48923 28.4265 4.15681C28.4316 3.8244 28.3487 3.49654 28.1863 3.20647C28.0238 2.9164 27.7876 2.67443 27.5015 2.50508C27.2154 2.33574 26.8896 2.24504 26.5572 2.24219H14.4429C14.1104 2.24504 13.7847 2.33574 13.4986 2.50508C13.2125 2.67443 12.9762 2.9164 12.8138 3.20647C12.6514 3.49654 12.5685 3.8244 12.5736 4.15681C12.5787 4.48923 12.6716 4.81439 12.8429 5.09933L16.2143 9.47076C7.64289 13.785 3.35718 19.4993 3.35718 28.0708C3.35718 35.8993 10.5 39.4422 20.5 39.4422Z" stroke="#BFF747" stroke-width="1.5" stroke-linecap="round" stroke-linejoin="round"/>
<path d="M17.643 28.2135C17.9916 28.6273 18.4303 28.9558 18.9256 29.1737C19.4209 29.3916 19.9595 29.4932 20.5001 29.4706C21.3264 29.527 22.1424 29.2607 22.7764 28.7279C23.4105 28.1951 23.8133 27.4372 23.9001 26.6135C23.8133 25.7898 23.4105 25.0319 22.7764 24.4991C22.1424 23.9663 21.3264 23.7 20.5001 23.7564C19.6738 23.8127 18.8578 23.5464 18.2238 23.0136C17.5897 22.4808 17.1869 21.7229 17.1001 20.8992C17.1799 20.0727 17.5808 19.3104 18.2165 18.7762C18.8522 18.2419 19.6722 17.9784 20.5001 18.0421C21.0312 18.0096 21.5629 18.0952 22.0569 18.2928C22.551 18.4904 22.9951 18.7951 23.3572 19.1849" stroke="#BFF747" stroke-width="1.5" stroke-linecap="round" stroke-linejoin="round"/>
</g>
<defs>
<clipPath id="clip0_133_1406">
<rect width="40" height="40" fill="white" transform="translate(0.5 0.899414)"/>
</clipPath>
</defs>
</svg>
