<svg width="61" height="61" viewBox="0 0 61 61" fill="none" xmlns="http://www.w3.org/2000/svg">
<path d="M14.1617 26.6375C20.6708 26.6375 25.9474 21.3608 25.9474 14.8518C25.9474 8.34268 20.6708 3.06604 14.1617 3.06604C7.65262 3.06604 2.37598 8.34268 2.37598 14.8518C2.37598 21.3608 7.65262 26.6375 14.1617 26.6375Z" stroke="#BFF747" stroke-width="2" stroke-linecap="round" stroke-linejoin="round"/>
<path d="M46.3043 26.6375C52.8133 26.6375 58.09 21.3608 58.09 14.8518C58.09 8.34268 52.8133 3.06604 46.3043 3.06604C39.7952 3.06604 34.5186 8.34268 34.5186 14.8518C34.5186 21.3608 39.7952 26.6375 46.3043 26.6375Z" stroke="#BFF747" stroke-width="2" stroke-linecap="round" stroke-linejoin="round"/>
<path d="M14.1617 58.7804C20.6708 58.7804 25.9474 53.5037 25.9474 46.9946C25.9474 40.4856 20.6708 35.2089 14.1617 35.2089C7.65262 35.2089 2.37598 40.4856 2.37598 46.9946C2.37598 53.5037 7.65262 58.7804 14.1617 58.7804Z" stroke="#BFF747" stroke-width="2" stroke-linecap="round" stroke-linejoin="round"/>
<path d="M46.3043 58.7803C52.8133 58.7803 58.09 53.5036 58.09 46.9946C58.09 40.4855 52.8133 35.2089 46.3043 35.2089C39.7952 35.2089 34.5186 40.4855 34.5186 46.9946C34.5186 53.5036 39.7952 58.7803 46.3043 58.7803Z" stroke="#BFF747" stroke-width="2" stroke-linecap="round" stroke-linejoin="round"/>
</svg>
