<svg width="59" height="59" viewBox="0 0 59 59" fill="none" xmlns="http://www.w3.org/2000/svg">
<path d="M11.4721 42.9334C9.05547 40.275 7.60547 37.375 7.60547 32.5417C7.60547 24.0834 13.6471 16.5917 22.1055 12.725L24.2805 15.8667C16.3055 20.2167 14.6138 25.775 14.1305 29.4C15.3388 28.675 17.0305 28.4334 18.7221 28.675C23.0721 29.1584 26.4555 32.5417 26.4555 37.1334C26.4555 39.3084 25.4888 41.4834 24.0388 43.175C22.3471 44.8667 20.4138 45.5917 17.9971 45.5917C15.3388 45.5917 12.9221 44.3834 11.4721 42.9334ZM35.6388 42.9334C33.2221 40.275 31.7721 37.375 31.7721 32.5417C31.7721 24.0834 37.8138 16.5917 46.2721 12.725L48.4471 15.8667C40.4721 20.2167 38.7805 25.775 38.2971 29.4C39.5055 28.675 41.1971 28.4334 42.8888 28.675C47.2388 29.1584 50.6221 32.5417 50.6221 37.1334C50.6221 39.3084 49.6555 41.4834 48.2055 43.175C46.7555 44.8667 44.5805 45.5917 42.1638 45.5917C39.5055 45.5917 37.0888 44.3834 35.6388 42.9334Z" fill="#BFF747"/>
</svg>
