<svg width="61" height="60" viewBox="0 0 61 60" fill="none" xmlns="http://www.w3.org/2000/svg">
<path d="M40.7464 6.42856H47.1749C48.3116 6.42856 49.4017 6.88009 50.2054 7.68381C51.0091 8.48754 51.4607 9.57763 51.4607 10.7143V53.5714C51.4607 54.7081 51.0091 55.7981 50.2054 56.6019C49.4017 57.4056 48.3116 57.8571 47.1749 57.8571H12.8892C11.7526 57.8571 10.6625 57.4056 9.85877 56.6019C9.05504 55.7981 8.60352 54.7081 8.60352 53.5714V10.7143C8.60352 9.57763 9.05504 8.48754 9.85877 7.68381C10.6625 6.88009 11.7526 6.42856 12.8892 6.42856H19.3178" stroke="#BFF747" stroke-width="1.5" stroke-linecap="round" stroke-linejoin="round"/>
<path d="M36.4602 2.14285H23.6031C21.2362 2.14285 19.3174 4.06163 19.3174 6.42857V8.57142C19.3174 10.9384 21.2362 12.8571 23.6031 12.8571H36.4602C38.8272 12.8571 40.746 10.9384 40.746 8.57142V6.42857C40.746 4.06163 38.8272 2.14285 36.4602 2.14285Z" stroke="#BFF747" stroke-width="1.5" stroke-linecap="round" stroke-linejoin="round"/>
<path d="M19.3174 23.5714H40.746" stroke="#BFF747" stroke-width="1.5" stroke-linecap="round" stroke-linejoin="round"/>
<path d="M19.3174 34.2857H40.746" stroke="#BFF747" stroke-width="1.5" stroke-linecap="round" stroke-linejoin="round"/>
<path d="M19.3174 45H40.746" stroke="#BFF747" stroke-width="1.5" stroke-linecap="round" stroke-linejoin="round"/>
</svg>
