<svg width="40" height="40" viewBox="0 0 40 40" fill="none" xmlns="http://www.w3.org/2000/svg">
<g clip-path="url(#clip0_150_1381)">
<path d="M9.28585 17.1429C13.6252 17.1429 17.143 13.6251 17.143 9.28573C17.143 4.94635 13.6252 1.42859 9.28585 1.42859C4.94647 1.42859 1.42871 4.94635 1.42871 9.28573C1.42871 13.6251 4.94647 17.1429 9.28585 17.1429Z" stroke="#BFF747" stroke-width="1.5" stroke-linecap="round" stroke-linejoin="round"/>
<path d="M30.7146 17.1429C35.0539 17.1429 38.5717 13.6251 38.5717 9.28573C38.5717 4.94635 35.0539 1.42859 30.7146 1.42859C26.3752 1.42859 22.8574 4.94635 22.8574 9.28573C22.8574 13.6251 26.3752 17.1429 30.7146 17.1429Z" stroke="#BFF747" stroke-width="1.5" stroke-linecap="round" stroke-linejoin="round"/>
<path d="M9.28585 38.5715C13.6252 38.5715 17.143 35.0537 17.143 30.7143C17.143 26.3749 13.6252 22.8572 9.28585 22.8572C4.94647 22.8572 1.42871 26.3749 1.42871 30.7143C1.42871 35.0537 4.94647 38.5715 9.28585 38.5715Z" stroke="#BFF747" stroke-width="1.5" stroke-linecap="round" stroke-linejoin="round"/>
<path d="M30.7146 38.5715C35.0539 38.5715 38.5717 35.0537 38.5717 30.7143C38.5717 26.3749 35.0539 22.8572 30.7146 22.8572C26.3752 22.8572 22.8574 26.3749 22.8574 30.7143C22.8574 35.0537 26.3752 38.5715 30.7146 38.5715Z" stroke="#BFF747" stroke-width="1.5" stroke-linecap="round" stroke-linejoin="round"/>
</g>
<defs>
<clipPath id="clip0_150_1381">
<rect width="40" height="40" fill="white"/>
</clipPath>
</defs>
</svg>
