<svg width="61" height="61" viewBox="0 0 61 61" fill="none" xmlns="http://www.w3.org/2000/svg">
<path d="M32.248 29.8611C31.6123 30.1371 30.9267 30.2796 30.2337 30.2796C29.5407 30.2796 28.8551 30.1371 28.2194 29.8611L3.79086 18.5468C3.39418 18.3467 3.06083 18.0405 2.82791 17.6621C2.595 17.2838 2.47168 16.8482 2.47168 16.4039C2.47168 15.9597 2.595 15.5241 2.82791 15.1458C3.06083 14.7674 3.39418 14.4612 3.79086 14.2611L28.2194 2.86109C28.8551 2.58506 29.5407 2.44263 30.2337 2.44263C30.9267 2.44263 31.6123 2.58506 32.248 2.86109L56.6766 14.1754C57.0733 14.3755 57.4066 14.6817 57.6395 15.0601C57.8724 15.4384 57.9958 15.874 57.9958 16.3182C57.9958 16.7625 57.8724 17.1981 57.6395 17.5764C57.4066 17.9548 57.0733 18.261 56.6766 18.4611L32.248 29.8611Z" stroke="#BFF747" stroke-width="2" stroke-linecap="round" stroke-linejoin="round"/>
<path d="M58.0912 31.7897L31.9484 43.8325C31.39 44.0872 30.7835 44.219 30.1698 44.219C29.5561 44.219 28.9496 44.0872 28.3912 43.8325L2.37695 31.7897" stroke="#BFF747" stroke-width="2" stroke-linecap="round" stroke-linejoin="round"/>
<path d="M58.0912 45.7183L31.9484 57.7611C31.39 58.0158 30.7835 58.1476 30.1698 58.1476C29.5561 58.1476 28.9496 58.0158 28.3912 57.7611L2.37695 45.7183" stroke="#BFF747" stroke-width="2" stroke-linecap="round" stroke-linejoin="round"/>
</svg>
