<svg width="41" height="41" viewBox="0 0 41 41" fill="none" xmlns="http://www.w3.org/2000/svg">
<g clip-path="url(#clip0_133_1424)">
<path d="M37.3857 16.6138H3.61423C2.01423 16.6138 1.32851 14.8709 2.58566 14.0423L19.4714 2.98518C19.7831 2.80179 20.1382 2.70508 20.4999 2.70508C20.8616 2.70508 21.2168 2.80179 21.5285 2.98518L38.4142 14.0423C39.6714 14.8709 38.9857 16.6138 37.3857 16.6138Z" stroke="#BFF747" stroke-width="1.5" stroke-linecap="round" stroke-linejoin="round"/>
<path d="M37.6428 32.3281H3.35704C2.56806 32.3281 1.92847 32.9677 1.92847 33.7567V38.0424C1.92847 38.8314 2.56806 39.471 3.35704 39.471H37.6428C38.4317 39.471 39.0713 38.8314 39.0713 38.0424V33.7567C39.0713 32.9677 38.4317 32.3281 37.6428 32.3281Z" stroke="#BFF747" stroke-width="1.5" stroke-linecap="round" stroke-linejoin="round"/>
<path d="M6.21411 16.6138V32.3281" stroke="#BFF747" stroke-width="1.5" stroke-linecap="round" stroke-linejoin="round"/>
<path d="M13.3569 16.6138V32.3281" stroke="#BFF747" stroke-width="1.5" stroke-linecap="round" stroke-linejoin="round"/>
<path d="M20.5 16.6138V32.3281" stroke="#BFF747" stroke-width="1.5" stroke-linecap="round" stroke-linejoin="round"/>
<path d="M27.6428 16.6138V32.3281" stroke="#BFF747" stroke-width="1.5" stroke-linecap="round" stroke-linejoin="round"/>
<path d="M34.7856 16.6138V32.3281" stroke="#BFF747" stroke-width="1.5" stroke-linecap="round" stroke-linejoin="round"/>
</g>
<defs>
<clipPath id="clip0_133_1424">
<rect width="40" height="40" fill="white" transform="translate(0.5 0.899414)"/>
</clipPath>
</defs>
</svg>
