<svg width="50" height="51" viewBox="0 0 50 51" fill="none" xmlns="http://www.w3.org/2000/svg">
<path d="M45.6055 7.57031H4.39453C1.9665 7.57031 0 9.54902 0 11.9648V38.332C0 40.7622 1.98096 42.7266 4.39453 42.7266H45.6055C48.0132 42.7266 50 40.7705 50 38.332V11.9648C50 9.55332 48.0413 7.57031 45.6055 7.57031ZM44.99 10.5C44.0922 11.3931 28.6409 26.763 28.1074 27.2937C27.2773 28.1237 26.1738 28.5808 25 28.5808C23.8262 28.5808 22.7227 28.1236 21.8898 27.2909C21.5311 26.934 6.25029 11.7338 5.00996 10.5H44.99ZM2.92969 37.7357V12.563L15.5896 25.1562L2.92969 37.7357ZM5.01182 39.7969L17.6668 27.2224L19.821 29.3652C21.2044 30.7486 23.0437 31.5104 25 31.5104C26.9563 31.5104 28.7956 30.7486 30.1763 29.368L32.3332 27.2224L44.9882 39.7969H5.01182ZM47.0703 37.7357L34.4104 25.1562L47.0703 12.563V37.7357Z" fill="#BFF747"/>
</svg>
