<svg width="40" height="41" viewBox="0 0 40 41" fill="none" xmlns="http://www.w3.org/2000/svg">
<g clip-path="url(#clip0_133_1458)">
<path d="M12.8574 22.3281H10.0002C8.42225 22.3281 7.14307 23.6073 7.14307 25.1853V36.6138C7.14307 38.1918 8.42225 39.471 10.0002 39.471H12.8574C14.4353 39.471 15.7145 38.1918 15.7145 36.6138V25.1853C15.7145 23.6073 14.4353 22.3281 12.8574 22.3281Z" stroke="#BFF747" stroke-width="1.5" stroke-linecap="round" stroke-linejoin="round"/>
<path d="M29.9999 22.3281H27.1428C25.5648 22.3281 24.2856 23.6073 24.2856 25.1853V36.6138C24.2856 38.1918 25.5648 39.471 27.1428 39.471H29.9999C31.5779 39.471 32.8571 38.1918 32.8571 36.6138V25.1853C32.8571 23.6073 31.5779 22.3281 29.9999 22.3281Z" stroke="#BFF747" stroke-width="1.5" stroke-linecap="round" stroke-linejoin="round"/>
<path d="M1.42871 28.0424V20.8996C1.42871 15.9741 3.38534 11.2504 6.86816 7.76757C10.351 4.28475 15.0747 2.32813 20.0001 2.32812C24.9256 2.32813 29.6493 4.28475 33.1321 7.76757C36.6149 11.2504 38.5716 15.9741 38.5716 20.8996V28.0424" stroke="#BFF747" stroke-width="1.5" stroke-linecap="round" stroke-linejoin="round"/>
</g>
<defs>
<clipPath id="clip0_133_1458">
<rect width="40" height="40" fill="white" transform="translate(0 0.899414)"/>
</clipPath>
</defs>
</svg>
