<svg width="41" height="41" viewBox="0 0 41 41" fill="none" xmlns="http://www.w3.org/2000/svg">
<g clip-path="url(#clip0_176_143)">
<path d="M35.8858 1.90466H4.45724C2.87928 1.90466 1.6001 3.18385 1.6001 4.76181V36.1904C1.6001 37.7683 2.87928 39.0475 4.45724 39.0475H35.8858C37.4638 39.0475 38.743 37.7683 38.743 36.1904V4.76181C38.743 3.18385 37.4638 1.90466 35.8858 1.90466Z" stroke="#BFF747" stroke-width="1.5" stroke-linecap="round" stroke-linejoin="round"/>
<path d="M20.1714 33.3333C25.6942 33.3333 30.1714 28.8561 30.1714 23.3333C30.1714 17.8104 25.6942 13.3333 20.1714 13.3333C14.6485 13.3333 10.1714 17.8104 10.1714 23.3333C10.1714 28.8561 14.6485 33.3333 20.1714 33.3333Z" stroke="#BFF747" stroke-width="1.5" stroke-linecap="round" stroke-linejoin="round"/>
<path d="M1.6001 10.4761H10.1715" stroke="#BFF747" stroke-width="1.5" stroke-linecap="round" stroke-linejoin="round"/>
<path d="M30.1714 10.4761H38.7428" stroke="#BFF747" stroke-width="1.5" stroke-linecap="round" stroke-linejoin="round"/>
<path d="M20.1714 23.2475V33.2475" stroke="#BFF747" stroke-width="1.5" stroke-linecap="round" stroke-linejoin="round"/>
<path d="M11.6001 18.1904L20.1715 23.2475" stroke="#BFF747" stroke-width="1.5" stroke-linecap="round" stroke-linejoin="round"/>
<path d="M28.7428 18.1904L20.1714 23.2475" stroke="#BFF747" stroke-width="1.5" stroke-linecap="round" stroke-linejoin="round"/>
</g>
<defs>
<clipPath id="clip0_176_143">
<rect width="40" height="40" fill="white" transform="translate(0.171387 0.476074)"/>
</clipPath>
</defs>
</svg>
