<svg width="41" height="41" viewBox="0 0 41 41" fill="none" xmlns="http://www.w3.org/2000/svg">
<path d="M30.7297 5.07135H9.92971C9.45018 5.08452 8.98048 5.21035 8.55858 5.43867C8.13669 5.66699 7.77444 5.99139 7.50114 6.38564L2.30114 13.5856C1.91502 14.1313 1.72218 14.7902 1.75324 15.458C1.7843 16.1257 2.03747 16.7639 2.47257 17.2714L18.0726 35.2428C18.3396 35.5869 18.6819 35.8654 19.0731 36.057C19.4643 36.2486 19.8941 36.3482 20.3297 36.3482C20.7653 36.3482 21.1952 36.2486 21.5864 36.057C21.9776 35.8654 22.3198 35.5869 22.5869 35.2428L38.1869 17.2714C38.622 16.7639 38.8751 16.1257 38.9062 15.458C38.9372 14.7902 38.7444 14.1313 38.3583 13.5856L33.1583 6.38564C32.885 5.99139 32.5227 5.66699 32.1008 5.43867C31.679 5.21035 31.2092 5.08452 30.7297 5.07135V5.07135Z" stroke="#BFF747" stroke-width="1.5" stroke-linecap="round" stroke-linejoin="round"/>
<path d="M18.844 5.04279L11.8726 15.8428L20.3297 36.2714" stroke="#BFF747" stroke-width="1.5" stroke-linecap="round" stroke-linejoin="round"/>
<path d="M21.901 5.04279L28.8439 15.8428L20.3296 36.2714" stroke="#BFF747" stroke-width="1.5" stroke-linecap="round" stroke-linejoin="round"/>
<path d="M1.81543 15.8428H38.844" stroke="#BFF747" stroke-width="1.5" stroke-linecap="round" stroke-linejoin="round"/>
</svg>
