<svg width="101" height="101" viewBox="0 0 101 101" fill="none" xmlns="http://www.w3.org/2000/svg">
<path d="M52.0121 8.35383L52.6047 0.735596L54.074 0.849899L53.4813 8.46814L52.0121 8.35383ZM52.763 8.41226L52.8714 7.01921L57.1702 7.35365L57.0619 8.7467L52.763 8.41226Z" fill="white"/>
<path d="M58.5493 9.00037L60.3491 1.5741L61.7813 1.9212L59.9815 9.34748L58.5493 9.00037ZM59.2813 9.17778L59.6104 7.81983L63.9071 8.86115L63.578 10.2191L59.2813 9.17778ZM60.0295 6.09057L60.3586 4.73262L64.337 5.69681L64.0079 7.05476L60.0295 6.09057ZM60.752 3.10945L61.0811 1.75151L65.3778 2.79282L65.0487 4.15077L60.752 3.10945Z" fill="white"/>
<path d="M69.8822 12.7935L70.3542 4.89774L70.387 4.66159L71.7348 5.25763L71.3351 13.3405L71.2998 13.4204L69.8822 12.7935ZM64.6409 10.4756L64.6762 10.3957L70.387 4.66159L71.7348 5.25763L71.5522 5.42754L66.0286 11.0892L64.6409 10.4756ZM66.6119 9.47329L67.4766 8.32787L71.0806 9.92171L70.8149 11.332L66.6119 9.47329Z" fill="white"/>
<path d="M72.5762 14.2129L76.8911 7.90649L78.0623 8.70783L73.7474 15.0142L72.5762 14.2129ZM74.8105 12.2233L75.5564 11.1332L77.5204 12.477C77.8327 12.6907 78.1243 12.78 78.3952 12.7449C78.6702 12.7038 78.9002 12.5481 79.0851 12.2778L80.3013 13.11C79.8945 13.7046 79.3837 14.0517 78.7688 14.1512C78.16 14.2549 77.5343 14.0869 76.8916 13.6472L74.8105 12.2233ZM79.0851 12.2778C79.27 12.0075 79.3298 11.7398 79.2643 11.4746C79.203 11.2033 79.0162 10.9609 78.7039 10.7472L76.7399 9.40343L77.4857 8.31332L79.5668 9.73723C80.2095 10.1769 80.5928 10.6993 80.7167 11.3043C80.8466 11.9135 80.7082 12.5154 80.3013 13.11L79.0851 12.2778ZM76.0177 16.5676L76.5042 12.8795L77.8817 13.3987L77.3734 17.3893L77.3241 17.4614L76.0177 16.5676Z" fill="white"/>
<path d="M82.2276 22.1348L83.8684 13.4838L84.1479 13.2075L85.1839 14.2557L83.5507 22.9145L83.2712 23.1907L82.2276 22.1348ZM78.7132 18.5789L84.1479 13.2075L85.1839 14.2557L79.7491 19.6271L78.7132 18.5789ZM82.2276 22.1348L87.6624 16.7634L88.706 17.8193L83.2712 23.1907L82.2276 22.1348Z" fill="white"/>
<path d="M88.2795 30.7154L88.4883 30.6202L96.5274 30.0427L97.1818 31.3141L96.978 31.419L88.939 31.9965L88.2795 30.7154ZM86.7008 27.6483L93.4949 24.1512L94.1693 25.4615L87.3753 28.9586L86.7008 27.6483ZM88.2845 30.7251L93.4209 24.5085L93.6248 24.4036L94.2842 25.6848L89.1428 31.8916L88.939 31.9965L88.2845 30.7251ZM89.8432 33.7533L96.6373 30.2562L97.3117 31.5665L90.5177 35.0636L89.8432 33.7533Z" fill="white"/>
<path d="M91.8398 40.4232C91.6636 39.7171 91.6665 39.0525 91.8485 38.4296C92.0376 37.8048 92.3838 37.2684 92.887 36.8203C93.3973 36.3704 94.0408 36.0485 94.8175 35.8547C95.5941 35.6609 96.3099 35.6435 96.9646 35.8026C97.6265 35.96 98.1841 36.2708 98.6375 36.7352C99.098 37.1979 99.4163 37.7822 99.5926 38.4883C99.7705 39.2014 99.7641 39.8668 99.5732 40.4845C99.3912 41.1075 99.045 41.6439 98.5347 42.0938C98.0315 42.5419 97.3916 42.8629 96.6149 43.0567C95.8382 43.2506 95.1189 43.2688 94.4571 43.1115C93.8024 42.9523 93.2447 42.6415 92.7842 42.1789C92.3326 41.7215 92.0178 41.1363 91.8398 40.4232ZM93.1955 40.0848C93.3012 40.5085 93.497 40.8571 93.7828 41.1308C94.0704 41.4116 94.4242 41.5971 94.8442 41.6872C95.2713 41.7757 95.7426 41.7556 96.258 41.6269C96.7805 41.4965 97.206 41.2928 97.5344 41.0159C97.8628 40.7389 98.088 40.4089 98.2099 40.0259C98.3336 39.65 98.3426 39.2503 98.2369 38.8266C98.1312 38.403 97.9345 38.0508 97.6469 37.77C97.3611 37.4963 97.0082 37.3144 96.5881 37.2242C96.1681 37.134 95.6968 37.1541 95.1743 37.2845C94.6589 37.4132 94.2334 37.6168 93.8979 37.8956C93.5695 38.1726 93.3435 38.499 93.2198 38.8749C93.0978 39.2579 93.0897 39.6612 93.1955 40.0848Z" fill="white"/>
<path d="M93.0743 45.7288L100.706 45.3378L100.778 46.755L93.1469 47.146L93.0743 45.7288ZM96.0111 46.2997L97.3302 46.2321L97.4519 48.6087C97.4713 48.9866 97.577 49.2727 97.7692 49.4669C97.9686 49.6607 98.2318 49.7492 98.5588 49.7325L98.6342 51.2042C97.9147 51.2411 97.329 51.0452 96.8771 50.6166C96.4256 50.1952 96.1799 49.5957 96.1401 48.818L96.0111 46.2997ZM98.5588 49.7325C98.8859 49.7157 99.135 49.6009 99.3063 49.3881C99.4849 49.1749 99.5644 48.8794 99.5451 48.5015L99.4233 46.1249L100.742 46.0573L100.871 48.5756C100.911 49.3533 100.728 49.9747 100.322 50.4401C99.9164 50.9126 99.3538 51.1674 98.6342 51.2042L98.5588 49.7325ZM93.2877 49.8932L96.5158 48.0446L96.9378 49.4548L93.4559 51.4695L93.3687 51.474L93.2877 49.8932Z" fill="white"/>
<path d="M93.2673 53.265L100.854 54.1768L100.678 55.6399L93.0915 54.7281L93.2673 53.265ZM93.1775 54.0128L94.5647 54.1795L94.0372 58.569L92.6499 58.4023L93.1775 54.0128ZM96.3313 54.3919L97.7186 54.5586L97.2302 58.6229L95.8429 58.4561L96.3313 54.3919ZM99.3769 54.7579L100.764 54.9246L100.237 59.314L98.8493 59.1473L99.3769 54.7579Z" fill="white"/>
<path d="M93.726 67.943L95.5749 66.7036L96.0972 67.3504L94.4766 68.8771L93.726 67.943ZM95.9755 66.6362L98.1092 67.2627L97.6799 68.3724L95.6723 67.4201L95.9755 66.6362ZM93.9758 65.6636L95.9755 66.6362L95.6723 67.4201L93.5465 66.7733L93.9758 65.6636ZM95.5749 66.7036L97.1791 65.1589L97.9297 66.093L96.0972 67.3504L95.5749 66.7036ZM95.4292 67.0803L96.2508 66.9534L96.7599 69.1167L95.5761 69.3025L95.4292 67.0803ZM94.8958 64.9193L96.0796 64.7335L96.2508 66.9534L95.4292 67.0803L94.8958 64.9193Z" fill="white"/>
<path d="M86.927 73.072L93.1755 77.4703L92.3273 78.6754L86.0788 74.2771L86.927 73.072ZM86.4935 73.688L87.6361 74.4922L85.1542 78.0182L84.0116 77.2139L86.4935 73.688Z" fill="white"/>
<path d="M83.0207 78.3781L88.4907 83.7136L87.4617 84.7686L81.9917 79.4331L83.0207 78.3781ZM82.4948 78.9173L83.495 79.8929L80.408 83.0578L79.4078 82.0821L82.4948 78.9173ZM84.7687 81.1354L85.769 82.111L82.9107 85.0414L81.9104 84.0657L84.7687 81.1354ZM86.9646 83.2772L87.9648 84.2528L84.8778 87.4176L83.8776 86.442L86.9646 83.2772Z" fill="white"/>
<path d="M73.9847 86.2027L80.5448 90.6219L80.7315 90.7702L79.5332 91.628L72.7751 87.176L72.7242 87.105L73.9847 86.2027ZM78.6446 82.8667L78.6955 82.9377L80.7315 90.7702L79.5332 91.628L79.4797 91.3844L77.4108 83.75L78.6446 82.8667ZM78.5061 85.0736L79.0531 86.4004L75.8488 88.6942L74.7692 87.7487L78.5061 85.0736Z" fill="white"/>
<path d="M71.3966 87.8018L74.6365 94.7222L73.3513 95.3239L70.1113 88.4035L71.3966 87.8018ZM71.9752 90.7371L72.5353 91.9333L70.3801 92.9423C70.0373 93.1028 69.8123 93.3086 69.7049 93.5597C69.6006 93.8175 69.6178 94.0947 69.7567 94.3913L68.422 95.0161C68.1166 94.3636 68.0771 93.7473 68.3037 93.1671C68.5237 92.59 68.9863 92.1364 69.6915 91.8062L71.9752 90.7371ZM69.7567 94.3913C69.8955 94.6879 70.0958 94.8753 70.3575 94.9537C70.6223 95.0387 70.926 95.0009 71.2687 94.8405L73.4239 93.8315L73.984 95.0277L71.7003 96.0969C70.995 96.427 70.3504 96.4918 69.7663 96.2912C69.1756 96.0936 68.7275 95.6686 68.422 95.0161L69.7567 94.3913ZM67.62 89.5699L70.5495 91.8626L69.4025 92.7852L66.2235 90.3201L66.1865 90.241L67.62 89.5699Z" fill="white"/>
<path d="M59.668 92.0791L66.2735 97.9015L66.3687 98.2828L64.9388 98.6396L58.3227 92.8198L58.2276 92.4385L59.668 92.0791ZM64.5189 90.8689L66.3687 98.2828L64.9388 98.6396L63.089 91.2256L64.5189 90.8689ZM59.668 92.0791L61.5178 99.4931L60.0774 99.8525L58.2276 92.4385L59.668 92.0791Z" fill="white"/>
<path d="M49.1369 92.9003L49.1122 93.1285L45.5056 100.336L44.0782 100.25L44.092 100.021L47.6986 92.8135L49.1369 92.9003ZM52.5802 93.1082L52.1196 100.736L50.6486 100.647L51.1092 93.0194L52.5802 93.1082ZM49.126 92.8997L51.8501 100.49L51.8363 100.718L50.398 100.632L47.6848 93.0423L47.6986 92.8135L49.126 92.8997ZM45.7264 92.6944L45.2659 100.322L43.7949 100.233L44.2554 92.6056L45.7264 92.6944Z" fill="white"/>
<path d="M38.9786 91.016C39.6759 91.224 40.2463 91.5651 40.6896 92.0391C41.1309 92.5201 41.4162 93.0912 41.5454 93.7525C41.6726 94.4208 41.6218 95.1385 41.3929 95.9056C41.1641 96.6727 40.8144 97.2974 40.3439 97.7798C39.8714 98.2692 39.3198 98.5907 38.6892 98.7443C38.0566 98.9049 37.3915 98.8811 36.6942 98.6731C35.9898 98.4629 35.4205 98.1184 34.9862 97.6395C34.5429 97.1655 34.2576 96.5944 34.1304 95.9261C34.0011 95.2648 34.0509 94.5506 34.2798 93.7835C34.5086 93.0164 34.8593 92.3882 35.3319 91.8988C35.8024 91.4164 36.3539 91.0949 36.9866 90.9343C37.6102 90.7787 38.2742 90.8059 38.9786 91.016ZM38.5791 92.3549C38.1607 92.2301 37.7609 92.221 37.3798 92.3275C36.9917 92.432 36.6518 92.6419 36.3603 92.9574C36.0666 93.2799 35.8438 93.6957 35.692 94.2048C35.538 94.7208 35.4965 95.1907 35.5676 95.6144C35.6386 96.0381 35.8079 96.4 36.0753 96.7C36.3358 96.9979 36.6752 97.2093 37.0936 97.3341C37.512 97.459 37.9153 97.4692 38.3034 97.3647C38.6845 97.2582 39.0209 97.0471 39.3125 96.7316C39.604 96.4161 39.8268 96.0003 39.9808 95.4843C40.1326 94.9752 40.1741 94.5053 40.1051 94.0747C40.0341 93.651 39.8683 93.2902 39.6079 92.9922C39.3404 92.6922 38.9975 92.4798 38.5791 92.3549Z" fill="white"/>
<path d="M33.7785 89.3733L30.2192 96.135L28.9635 95.474L32.5227 88.7123L33.7785 89.3733ZM31.7884 91.6072L31.1732 92.776L29.0674 91.6675C28.7325 91.4913 28.4326 91.4362 28.1675 91.5022C27.8991 91.5748 27.6886 91.7559 27.5361 92.0457L26.232 91.3593C26.5676 90.7217 27.035 90.3181 27.6343 90.1483C28.2271 89.9751 28.868 90.0699 29.5571 90.4326L31.7884 91.6072ZM27.5361 92.0457C27.3835 92.3355 27.355 92.6083 27.4506 92.8642C27.5428 93.1266 27.7563 93.3459 28.0912 93.5222L30.1969 94.6306L29.5817 95.7994L27.3503 94.6249C26.6613 94.2622 26.2204 93.7875 26.0275 93.2007C25.8283 92.6106 25.8964 91.9968 26.232 91.3593L27.5361 92.0457ZM30.0885 87.431L30.0304 91.1505L28.6023 90.7935L28.6472 86.771L28.6879 86.6937L30.0885 87.431Z" fill="white"/>
<path d="M27.2644 85.7311L22.6074 91.7893L21.4391 90.8912L26.096 84.833L27.2644 85.7311ZM26.6672 85.2721L25.8157 86.3799L22.3106 83.6855L23.1622 82.5777L26.6672 85.2721ZM24.7313 87.7906L23.8797 88.8983L20.6343 86.4035L21.4858 85.2957L24.7313 87.7906ZM22.8618 90.2225L22.0103 91.3303L18.5052 88.6359L19.3567 87.5281L22.8618 90.2225Z" fill="white"/>
<path d="M14.397 78.6397L14.5241 80.8619L13.7016 80.9827L13.211 78.811L14.397 78.6397ZM14.3784 81.2411L12.7541 82.7599L12.0169 81.826L13.8576 80.5814L14.3784 81.2411ZM16.2327 80.0137L14.3784 81.2411L13.8576 80.5814L15.4954 79.0798L16.2327 80.0137ZM14.5241 80.8619L15.0386 83.0287L13.8526 83.2L13.7016 80.9827L14.5241 80.8619ZM14.2738 80.5449L13.9654 81.3169L11.8437 80.6553L12.2856 79.5415L14.2738 80.5449ZM16.4059 81.1843L15.9639 82.2982L13.9654 81.3169L14.2738 80.5449L16.4059 81.1843Z" fill="white"/>
<path d="M13.4295 70.1744L6.46631 73.3212L5.85943 71.9783L12.8227 68.8315L13.4295 70.1744ZM13.1194 69.488L11.8461 70.0634L10.0704 66.1342L11.3437 65.5588L13.1194 69.488Z" fill="white"/>
<path d="M10.8481 64.1213L3.46997 66.1093L3.08658 64.6864L10.4647 62.6984L10.8481 64.1213ZM10.6521 63.3941L9.303 63.7576L8.15282 59.4888L9.50197 59.1253L10.6521 63.3941ZM7.58495 64.2205L6.23581 64.584L5.17083 60.6314L6.51997 60.2679L7.58495 64.2205ZM4.62316 65.0185L3.27401 65.382L2.12383 61.1133L3.47298 60.7498L4.62316 65.0185Z" fill="white"/>
<path d="M8.72957 52.3701L1.58077 55.7554L1.35797 55.8403L1.232 54.372L8.51005 50.8332L8.59706 50.8257L8.72957 52.3701ZM9.21949 58.0801L9.13248 58.0876L1.35797 55.8403L1.232 54.372L1.46879 54.4503L9.08978 56.5683L9.21949 58.0801ZM7.39249 56.8345L5.97235 56.6276L5.63547 52.7014L6.99962 52.2556L7.39249 56.8345Z" fill="white"/>
<path d="M8.67629 49.2464L1.07129 48.5029L1.20936 47.0906L8.81437 47.834L8.67629 49.2464ZM5.85649 48.2468L4.54191 48.1183L4.77345 45.7499C4.81027 45.3733 4.74806 45.0747 4.58681 44.8542C4.41832 44.633 4.17111 44.5065 3.84518 44.4746L3.98857 43.0079C4.70561 43.078 5.25585 43.3585 5.63928 43.8493C6.02341 44.3329 6.1776 44.9622 6.10184 45.7372L5.85649 48.2468ZM3.84518 44.4746C3.51926 44.4427 3.25584 44.5194 3.05494 44.7045C2.8468 44.8888 2.72432 45.1694 2.6875 45.546L2.45597 47.9144L1.14139 47.7859L1.38673 45.2762C1.4625 44.5012 1.73564 43.9137 2.20616 43.5137C2.67739 43.1064 3.27152 42.9378 3.98857 43.0079L3.84518 44.4746ZM9.08202 45.0962L5.61571 46.4465L5.40719 44.9893L9.14911 43.5124L9.23602 43.5209L9.08202 45.0962Z" fill="white"/>
<path d="M10.9728 36.9848L2.59752 39.7029L2.22095 39.5906L2.64235 38.1784L11.0207 35.4498L11.3973 35.5622L10.9728 36.9848ZM9.54314 41.7756L2.22095 39.5906L2.64235 38.1784L9.96454 40.3635L9.54314 41.7756ZM10.9728 36.9848L3.65059 34.7998L4.07511 33.3772L11.3973 35.5622L10.9728 36.9848Z" fill="white"/>
<path d="M15.6017 27.5676L15.4182 27.4299L11.0608 20.6495L11.8634 19.4661L12.0531 19.5947L16.4105 26.375L15.6017 27.5676ZM13.6656 30.4224L7.34155 26.1334L8.16872 24.9137L14.4927 29.2028L13.6656 30.4224ZM15.6079 27.5585L7.69058 26.0271L7.50086 25.8985L8.30965 24.7059L16.2208 26.2464L16.4105 26.375L15.6079 27.5585ZM17.5196 24.7398L11.1956 20.4508L12.0227 19.2312L18.3467 23.5202L17.5196 24.7398Z" fill="white"/>
<path d="M22.4076 19.7878C21.8735 20.2821 21.2896 20.5994 20.6559 20.7396C20.0172 20.8745 19.3804 20.8292 18.7454 20.6038C18.1055 20.373 17.5137 19.9639 16.97 19.3763C16.4262 18.7888 16.0666 18.1697 15.8909 17.5192C15.7104 16.8634 15.7145 16.225 15.9033 15.604C16.0872 14.9777 16.4463 14.4174 16.9804 13.9231C17.5199 13.4239 18.1062 13.1093 18.7395 12.9794C19.3732 12.8391 20.0101 12.8844 20.65 13.1152C21.285 13.3406 21.8743 13.7471 22.418 14.3347C22.9617 14.9222 23.3239 15.5439 23.5045 16.1998C23.6801 16.8503 23.676 17.4887 23.4921 18.115C23.3086 18.731 22.9471 19.2886 22.4076 19.7878ZM21.4586 18.7623C21.7791 18.4657 21.9905 18.1263 22.0928 17.7441C22.2005 17.3569 22.1928 16.9574 22.0697 16.5458C21.9417 16.1289 21.6973 15.7255 21.3364 15.3356C20.9707 14.9403 20.5874 14.6654 20.1865 14.5108C19.7857 14.3563 19.3881 14.3177 18.9937 14.3951C18.6046 14.4676 18.2499 14.6521 17.9294 14.9487C17.6089 15.2452 17.3948 15.5871 17.2871 15.9743C17.1848 16.3566 17.1952 16.7535 17.3183 17.1651C17.4414 17.5767 17.6858 17.9801 18.0516 18.3754C18.4124 18.7653 18.7957 19.0402 19.2015 19.2001C19.6023 19.3547 19.9973 19.3958 20.3863 19.3233C20.7807 19.2459 21.1381 19.0589 21.4586 18.7623Z" fill="white"/>
<path d="M26.4673 16.1451L22.4482 9.64624L23.6552 8.89984L27.6743 15.3987L26.4673 16.1451ZM25.5528 13.2966L24.8581 12.1732L26.882 10.9216C27.2039 10.7225 27.4036 10.4921 27.4812 10.2301C27.555 9.96204 27.5058 9.68873 27.3335 9.4102L28.5869 8.63509C28.9658 9.24785 29.0764 9.85547 28.9185 10.458C28.7667 11.0566 28.3597 11.5607 27.6975 11.9703L25.5528 13.2966ZM27.3335 9.4102C27.1613 9.13168 26.9407 8.96864 26.6717 8.92108C26.3989 8.86733 26.1015 8.93997 25.7797 9.13902L23.7557 10.3907L23.061 9.2673L25.2056 7.94099C25.8679 7.53143 26.5007 7.39249 27.1041 7.52418C27.7137 7.65203 28.208 8.02234 28.5869 8.63509L27.3335 9.4102ZM30.0139 13.9519L26.8387 12.0137L27.8712 10.9644L31.3142 13.0451L31.3601 13.1193L30.0139 13.9519Z" fill="white"/>
<path d="M32.9211 12.3765L30.072 5.28625L31.4394 4.73679L34.2885 11.827L32.9211 12.3765ZM33.62 12.0957L33.099 10.7992L37.2012 9.15079L37.7222 10.4473L33.62 12.0957ZM32.4356 9.14815L31.9146 7.85165L35.713 6.32537L36.2339 7.62187L32.4356 9.14815ZM31.2919 6.30192L30.7709 5.00542L34.8731 3.35704L35.3941 4.65354L31.2919 6.30192Z" fill="white"/>
<path d="M45.4489 4.91473L43.4535 3.92852L43.7543 3.15352L45.8852 3.7987L45.4489 4.91473ZM43.1955 3.61466L42.6763 1.4524L43.8524 1.27211L44.0264 3.4873L43.1955 3.61466ZM43.3479 5.83316L43.1955 3.61466L44.0264 3.4873L44.524 5.65287L43.3479 5.83316ZM43.4535 3.92852L41.3151 3.30657L41.7514 2.19054L43.7543 3.15352L43.4535 3.92852ZM43.8527 3.86732L43.3335 3.21803L44.956 1.6993L45.7066 2.63338L43.8527 3.86732ZM42.2443 5.40598L41.4937 4.47189L43.3335 3.21803L43.8527 3.86732L42.2443 5.40598Z" fill="white"/>
<g clip-path="url(#clip0_126_608)">
<path d="M65.5232 63.1837C65.5775 63.1837 65.6324 63.1743 65.6853 63.1547C65.8813 63.0825 66.006 62.8898 65.991 62.6812C65.9792 62.5158 64.6119 46.274 46.7286 44.8804L46.7718 38.7595C46.7732 38.5673 46.6564 38.3934 46.4778 38.3217C46.2997 38.25 46.0949 38.294 45.9622 38.4347L36.1199 48.8493C35.9492 49.0298 35.9492 49.312 36.1194 49.4925L46.0232 60.0004C46.1553 60.1415 46.3611 60.1861 46.5392 60.1139C46.7183 60.0422 46.835 59.8678 46.8332 59.6742L46.7764 53.7089C58.8078 54.5733 65.083 62.9076 65.1458 62.9925C65.2363 63.1153 65.3774 63.1837 65.5232 63.1837ZM45.8258 39.944L45.7874 45.3145C45.7855 45.5629 45.9782 45.7701 46.2266 45.7856C60.6219 46.6959 64.0457 57.1809 64.8317 61.2075C62.4683 58.7184 56.2138 53.2734 46.3283 52.7414C46.2003 52.7334 46.0724 52.7812 45.9791 52.8708C45.8858 52.9603 45.8328 53.0845 45.8343 53.2139L45.8839 58.4854L37.1047 49.1709L45.8258 39.944Z" fill="white"/>
</g>
<defs>
<clipPath id="clip0_126_608">
<rect width="30" height="30" fill="white" transform="matrix(-1 0 0 1 65.9919 35.7356)"/>
</clipPath>
</defs>
</svg>
