<svg width="45" height="51" viewBox="0 0 45 51" fill="none" xmlns="http://www.w3.org/2000/svg">
<path d="M33.4108 6.21026L23.541 0.481818C22.7373 0.015338 21.4223 0.015338 20.6188 0.481818L10.8223 6.1676L33.4108 6.21026Z" fill="#BFF747"/>
<path d="M17.7049 48.3552L44.1595 19.3234V15.0559L6.66455 41.9471L17.7049 48.3552Z" fill="#BFF747"/>
<path d="M36.5135 8.01108L34.6436 6.92578L5.12294 9.47547L1.46116 11.6008C0.657616 12.0673 0 13.2121 0 14.145V22.0061L36.5135 8.01108Z" fill="#BFF747"/>
<path d="M18.7412 48.9562L20.6186 50.046C21.4222 50.5125 22.7371 50.5125 23.5408 50.046L42.6984 38.9271C43.5022 38.4606 44.1595 37.3159 44.1595 36.383V25.5493L18.7412 48.9562Z" fill="#BFF747"/>
<path d="M1.46117 38.9272L1.99529 39.2371L44.1597 14.2817V14.1449C44.1597 13.2121 43.5024 12.0672 42.6986 11.6007L41.8332 11.0985L0 23.0401V36.383C0 37.3159 0.657624 38.4607 1.46117 38.9272Z" fill="#BFF747"/>
</svg>
