<svg width="169" height="51" viewBox="0 0 169 51" fill="none" xmlns="http://www.w3.org/2000/svg">
<path d="M33.4108 6.21026L23.541 0.481818C22.7373 0.015338 21.4223 0.015338 20.6188 0.481818L10.8223 6.1676L33.4108 6.21026Z" fill="#BFF747"/>
<path d="M17.7049 48.3552L44.1595 19.3234V15.0559L6.66455 41.9471L17.7049 48.3552Z" fill="#BFF747"/>
<path d="M36.5135 8.01108L34.6436 6.92578L5.12294 9.47547L1.46116 11.6008C0.657616 12.0673 0 13.2121 0 14.145V22.0061L36.5135 8.01108Z" fill="#BFF747"/>
<path d="M18.7412 48.9562L20.6186 50.046C21.4222 50.5125 22.7371 50.5125 23.5408 50.046L42.6984 38.9271C43.5022 38.4606 44.1595 37.3159 44.1595 36.383V25.5493L18.7412 48.9562Z" fill="#BFF747"/>
<path d="M1.46117 38.9272L1.99529 39.2371L44.1597 14.2817V14.1449C44.1597 13.2121 43.5024 12.0672 42.6986 11.6007L41.8332 11.0985L0 23.0401V36.383C0 37.3159 0.657624 38.4607 1.46117 38.9272Z" fill="#BFF747"/>
<path d="M65.5797 34.48C64.5397 34.48 63.6097 34.28 62.7897 33.88C61.9897 33.48 61.3597 32.92 60.8997 32.2C60.4397 31.48 60.2097 30.66 60.2097 29.74C60.2097 28.26 60.7097 27.09 61.7097 26.23C62.7297 25.35 64.2097 24.83 66.1497 24.67L72.0597 24.16V27.4L66.6597 27.85C65.7997 27.93 65.1897 28.11 64.8297 28.39C64.4897 28.67 64.3197 29.03 64.3197 29.47C64.3197 29.91 64.5297 30.27 64.9497 30.55C65.3697 30.81 65.8997 30.94 66.5397 30.94C67.2397 30.94 67.8697 30.76 68.4297 30.4C69.0097 30.04 69.4697 29.58 69.8097 29.02C70.1497 28.44 70.3197 27.83 70.3197 27.19V24.7C70.3197 23.84 70.0197 23.13 69.4197 22.57C68.8197 22.01 68.0597 21.73 67.1397 21.73C66.2797 21.73 65.5897 21.95 65.0697 22.39C64.5497 22.81 64.2397 23.28 64.1397 23.8H63.8097L60.3897 23.08C60.6897 21.72 61.4297 20.58 62.6097 19.66C63.8097 18.74 65.3197 18.28 67.1397 18.28C69.3397 18.28 71.0697 18.9 72.3297 20.14C73.6097 21.38 74.2497 23.13 74.2497 25.39V34H70.7397V29.56H72.2097C71.9697 30.44 71.5297 31.26 70.8897 32.02C70.2697 32.76 69.5097 33.36 68.6097 33.82C67.7097 34.26 66.6997 34.48 65.5797 34.48ZM77.6882 34V18.76H81.4382V22.39L80.4482 22.6C80.9282 21.4 81.6582 20.46 82.6382 19.78C83.6182 19.1 84.7482 18.76 86.0282 18.76H87.4382V22.33H85.4282C84.6682 22.33 84.0082 22.49 83.4482 22.81C82.9082 23.13 82.4882 23.6 82.1882 24.22C81.8882 24.82 81.7382 25.54 81.7382 26.38V34H77.6882ZM95.9176 34C94.3376 34 93.0776 33.51 92.1376 32.53C91.2176 31.53 90.7576 30.18 90.7576 28.48V14.92H94.8076V28.03C94.8076 28.77 95.0176 29.36 95.4376 29.8C95.8776 30.22 96.4676 30.43 97.2076 30.43H98.6476L98.7976 30.76V34H95.9176ZM88.1776 22.33V18.76H98.7976V22.33H88.1776ZM101.8 34V18.76H105.85V34H101.8ZM103.84 16.84C103.16 16.84 102.58 16.6 102.1 16.12C101.62 15.64 101.38 15.06 101.38 14.38C101.38 13.72 101.62 13.15 102.1 12.67C102.58 12.19 103.16 11.95 103.84 11.95C104.5 11.95 105.07 12.19 105.55 12.67C106.03 13.15 106.27 13.72 106.27 14.38C106.27 15.06 106.03 15.64 105.55 16.12C105.07 16.6 104.5 16.84 103.84 16.84ZM115.176 34.48C113.476 34.48 112.016 34.09 110.796 33.31C109.596 32.51 108.796 31.43 108.396 30.07L112.086 29.14L112.446 29.23C112.606 29.79 112.946 30.23 113.466 30.55C114.006 30.87 114.626 31.03 115.326 31.03C116.006 31.03 116.576 30.9 117.036 30.64C117.496 30.36 117.726 30 117.726 29.56C117.726 29.18 117.586 28.88 117.306 28.66C117.026 28.44 116.606 28.27 116.046 28.15L113.166 27.52C111.746 27.2 110.646 26.66 109.866 25.9C109.106 25.12 108.726 24.17 108.726 23.05C108.726 22.09 108.996 21.26 109.536 20.56C110.076 19.84 110.816 19.28 111.756 18.88C112.716 18.48 113.796 18.28 114.996 18.28C116.616 18.28 117.986 18.68 119.106 19.48C120.246 20.26 120.996 21.35 121.356 22.75L117.936 23.5L117.606 23.44C117.466 22.94 117.126 22.53 116.586 22.21C116.066 21.89 115.476 21.73 114.816 21.73C114.216 21.73 113.706 21.84 113.286 22.06C112.886 22.28 112.686 22.59 112.686 22.99C112.686 23.25 112.796 23.5 113.016 23.74C113.256 23.96 113.616 24.12 114.096 24.22L116.976 24.88C118.516 25.24 119.686 25.77 120.486 26.47C121.286 27.15 121.686 28.1 121.686 29.32C121.686 30.36 121.406 31.27 120.846 32.05C120.286 32.83 119.516 33.43 118.536 33.85C117.556 34.27 116.436 34.48 115.176 34.48ZM130.341 34C128.761 34 127.501 33.51 126.561 32.53C125.641 31.53 125.181 30.18 125.181 28.48V14.92H129.231V28.03C129.231 28.77 129.441 29.36 129.861 29.8C130.301 30.22 130.891 30.43 131.631 30.43H133.071L133.221 30.76V34H130.341ZM122.601 22.33V18.76H133.221V22.33H122.601ZM136.223 34V18.76H140.273V34H136.223ZM138.263 16.84C137.583 16.84 137.003 16.6 136.523 16.12C136.043 15.64 135.803 15.06 135.803 14.38C135.803 13.72 136.043 13.15 136.523 12.67C137.003 12.19 137.583 11.95 138.263 11.95C138.923 11.95 139.493 12.19 139.973 12.67C140.453 13.15 140.693 13.72 140.693 14.38C140.693 15.06 140.453 15.64 139.973 16.12C139.493 16.6 138.923 16.84 138.263 16.84ZM151.19 34.48C149.59 34.48 148.18 34.14 146.96 33.46C145.76 32.78 144.82 31.83 144.14 30.61C143.46 29.39 143.12 27.98 143.12 26.38C143.12 24.78 143.46 23.37 144.14 22.15C144.82 20.93 145.76 19.98 146.96 19.3C148.18 18.62 149.59 18.28 151.19 18.28C152.43 18.28 153.53 18.48 154.49 18.88C155.47 19.26 156.29 19.85 156.95 20.65C157.63 21.45 158.15 22.45 158.51 23.65L155.18 24.58H154.82C154.56 23.74 154.08 23.08 153.38 22.6C152.7 22.1 151.97 21.85 151.19 21.85C150.37 21.85 149.66 22.04 149.06 22.42C148.46 22.78 147.99 23.3 147.65 23.98C147.33 24.64 147.17 25.44 147.17 26.38C147.17 27.3 147.33 28.1 147.65 28.78C147.99 29.46 148.46 29.99 149.06 30.37C149.66 30.73 150.37 30.91 151.19 30.91C151.77 30.91 152.31 30.8 152.81 30.58C153.33 30.36 153.78 30.05 154.16 29.65C154.54 29.23 154.81 28.74 154.97 28.18H155.33L158.66 29.11C158.3 30.31 157.78 31.31 157.1 32.11C156.42 32.91 155.59 33.51 154.61 33.91C153.63 34.29 152.49 34.48 151.19 34.48Z" fill="white"/>
<path d="M163.347 34.3C162.647 34.3 162.037 34.05 161.517 33.55C161.017 33.05 160.767 32.45 160.767 31.75C160.767 31.05 161.017 30.46 161.517 29.98C162.037 29.48 162.647 29.23 163.347 29.23C164.027 29.23 164.617 29.48 165.117 29.98C165.617 30.46 165.867 31.05 165.867 31.75C165.867 32.45 165.617 33.05 165.117 33.55C164.617 34.05 164.027 34.3 163.347 34.3Z" fill="#BFF747"/>
</svg>
